<?xml version="1.0" encoding="utf-8"?>
<!-- Generator: Adobe Illustrator 19.2.1, SVG Export Plug-In . SVG Version: 6.00 Build 0)  -->
<svg version="1.1" id="Layer_1" xmlns="http://www.w3.org/2000/svg" xmlns:xlink="http://www.w3.org/1999/xlink" x="0px" y="0px"
	 viewBox="0 0 1074 468.5" style="enable-background:new 0 0 1074 468.5;" xml:space="preserve">
<style type="text/css">
	.st0{fill:#FFFFFF;stroke:#FFFFFF;stroke-width:1.34;stroke-miterlimit:10;}
	.st1{fill:#D35B30;}
	.st2{opacity:0.4;}
	.st3{fill:#595A5C;}
	.st4{fill:#FFFFFF;}
</style>
<rect y="0" class="st0" width="1074" height="468.5"/>
<title>iz_logo_yatay</title>
<path class="st1" d="M402.3,37.1H417v90.4l52.6-46.1h21.6l-47.6,43.5l51.2,71h-20.7l-44.8-61.6L417,144.4v51.4h-14.7V37.1z"/>
<path class="st1" d="M545.4,75.7c17.5,0,32,6.4,43.5,19.1c10.3,11.3,15.9,26.1,15.7,41.4c0,15.9-5.5,29.9-16.6,41.8
	c-11.1,11.9-25.3,17.9-42.6,17.9c-17.4,0-31.6-6-42.7-17.9s-16.5-25.9-16.5-41.8c-0.2-15.3,5.4-30,15.6-41.3
	C513.4,82.1,527.9,75.7,545.4,75.7z M545.4,90.1c-12.1,0-22.5,4.5-31.2,13.6c-8.6,8.7-13.3,20.5-13.1,32.8c0,8.1,2,16.1,6,23.2
	c3.7,6.9,9.3,12.7,16.1,16.6c13.8,7.7,30.7,7.7,44.5,0c6.8-3.9,12.3-9.7,16-16.6c3.9-7.1,6-15.1,5.9-23.2c0.2-12.2-4.5-24-13.1-32.8
	C567.9,94.7,557.5,90.1,545.4,90.1z"/>
<path class="st1" d="M617.5,152.4l-0.2-12.2c-0.3-5.1,0-10.2,0.7-15.2c1.5-13.1,4.9-22.8,10-28.9c4.4-4.9,9.6-9.1,15.2-12.4
	c8.6-3.7,18.3-5.4,29.3-5.2c8.4,0,16.6,2.2,23.8,6.6c7,4,12.5,10.1,15.6,17.5c3.1,7.3,4.7,18.8,4.7,34.5v58.8h-14.5v-54.6
	c0-13.2-0.6-22-1.7-26.5c-1.7-7.6-5.1-13-10.3-16.1c-5.1-3.2-12.7-4.8-22.7-4.8c-8.5-0.1-16.8,2.6-23.6,7.7
	c-6.9,5.1-10.1,12.2-9.6,21.1c-1.3,5.7-2,16.1-2,31.2v41.9h-14.7V152.4z"/>
<path class="st1" d="M847.2,169.8c0,16.1-1.4,27.8-4.3,35.3c-3.6,10.2-10.7,18.8-20,24.3c-9.5,5.7-20.9,8.5-34.2,8.5
	c-9,0.1-17.9-1.3-26.3-4.2c-7-2.4-13.5-6.2-19-11.2c-4.9-4.7-9.4-11.5-13.5-20.4h15.9c4.4,7.6,9.9,13.2,16.7,16.8
	c6.8,3.6,15.3,5.4,25.5,5.4c10,0,18.4-1.9,25.2-5.6c6.9-3.8,11.8-8.5,14.7-14.1c2.9-5.6,4.3-14.8,4.3-27.4v-5.8
	c-5.3,6.9-12.2,12.5-20.2,16.2c-17.5,8.2-37.9,7.4-54.7-2.2c-8.9-4.9-16.3-12.2-21.4-21.1c-10.1-18.3-10-40.6,0.3-58.8
	c10.5-18.2,29.9-29.5,50.9-29.7c8-0.1,15.9,1.3,23.3,4c5.9,2.2,12.8,6.3,20.8,12.4c6.8,5.6,12.1,16.4,16,32.2
	C847.3,126.4,847.2,141.6,847.2,169.8z M789.2,89.9c-8.1,0-16.1,2.1-23.1,6.1c-7,3.9-12.8,9.7-16.7,16.7c-4,7-6.1,15-6.1,23.1
	c0,12.6,4.2,23,12.5,31.2c8.4,8.2,19.2,12.3,32.5,12.3c13.5,0,24.4-4.1,32.5-12.2c8.2-8.1,12.2-18.9,12.2-32.1
	c0.1-8-1.8-16-5.7-23.1c-3.7-6.7-9.3-12.3-16-16C804.7,91.9,797,89.9,789.2,89.9z"/>
<path class="st1" d="M862.6,143.4v-13.8c0.8-5.8,2.4-11.5,4.8-16.8c4.8-12,11.3-20.7,19.5-26.3c8.2-5.6,14.9-8.3,20.3-8.3
	c4,0,8.3,1.3,12.9,4l-7.6,12.3c-6.4-2.4-12.8-0.5-19.1,5.7c-5.9,5.6-10.4,12.5-13.1,20.2c-1.8,6.5-2.7,18.6-2.7,36.4v38.7h-14.9
	V143.4z"/>
<path class="st1" d="M1010.6,155.1l12.2,6.6c-3.4,7.2-8.1,13.8-13.9,19.3c-5.2,4.8-11.3,8.6-18,11.1c-7.2,2.6-14.8,3.9-22.5,3.8
	c-18.5,0-33-6.1-43.4-18.3c-10.4-12.2-15.7-26-15.7-41.4c-0.2-14.1,4.5-27.8,13.3-38.8c11.2-14.5,26.2-21.7,45.1-21.7
	c19.3,0,34.7,7.4,46.3,22.2c8.2,10.4,12.4,23.4,12.4,39H924.5c0.3,13.3,4.5,24.3,12.7,32.8c7.8,8.4,18.8,13,30.2,12.8
	c5.8,0,11.5-1,16.9-3.1c5.1-1.8,9.8-4.6,13.9-8.1C1002,168.1,1006.1,162.6,1010.6,155.1z M1010.6,124.3c-1.9-7.9-4.8-14.1-8.5-18.8
	c-4-4.9-9.1-8.8-14.8-11.4c-6.1-2.9-12.7-4.3-19.4-4.3c-10.6-0.2-20.9,3.7-28.7,10.8c-5.8,5.3-10.2,13.2-13.2,23.7L1010.6,124.3z"/>
<path class="st1" d="M433.5,259.7c8.8-0.2,17.1,3.5,22.9,10.1c5.4,6,8.4,13.8,8.2,21.8c0.1,8.2-3.1,16.1-8.7,22
	c-5.8,6.3-13.3,9.4-22.4,9.4s-16.6-3.1-22.5-9.4c-11.4-12.3-11.6-31.2-0.5-43.8C416.3,263.2,424.7,259.5,433.5,259.7z M433.5,267.3
	c-6.2-0.1-12.2,2.5-16.4,7.1c-4.5,4.6-7,10.8-6.9,17.3c0,4.3,1.1,8.5,3.1,12.2c2,3.7,4.9,6.7,8.5,8.7c7.3,4.1,16.2,4.1,23.5,0
	c3.6-2.1,6.5-5.1,8.4-8.7c2.1-3.7,3.1-8,3.1-12.2c0.1-6.4-2.4-12.7-6.9-17.3C445.7,269.8,439.7,267.2,433.5,267.3z"/>
<path class="st1" d="M469.8,295.4v-7.3c0.4-3.1,1.3-6,2.5-8.9c2.5-6.3,6-10.9,10.3-13.9s7.9-4.4,10.7-4.4c2.4,0.1,4.7,0.8,6.8,2.1
	l-4,6.5c-3.4-1.2-6.7-0.2-10.1,3c-3.1,2.9-5.5,6.6-6.9,10.7c-0.9,3.4-1.4,9.8-1.4,19.2v20.4h-7.8V295.4z"/>
<path class="st1" d="M556.8,309.3c0,8.5-0.7,14.7-2.2,18.6c-1.9,5.4-5.6,9.9-10.5,12.8c-5,3-11,4.5-18,4.5
	c-4.7,0.1-9.4-0.7-13.9-2.2c-3.7-1.2-7.1-3.2-10-5.9c-3-3.1-5.4-6.8-7.1-10.8h8.4c2,3.7,5.1,6.8,8.8,8.9c3.6,1.9,8.1,2.9,13.4,2.9
	c4.6,0.1,9.2-0.9,13.3-3c3.3-1.6,6-4.2,7.7-7.4c1.5-3,2.3-7.8,2.3-14.5V310c-2.8,3.6-6.5,6.6-10.6,8.5c-9.2,4.3-20,3.9-28.8-1.1
	c-4.7-2.6-8.6-6.4-11.3-11.1c-5.3-9.6-5.3-21.4,0.2-30.9c5.5-9.6,15.7-15.5,26.8-15.6c4.2-0.1,8.4,0.7,12.3,2.1
	c4,1.6,7.7,3.8,11,6.5c3.6,3,6.4,8.6,8.4,17C556.9,286.4,556.8,294.4,556.8,309.3z M526.3,267.2c-4.3,0-8.5,1.1-12.2,3.2
	c-3.7,2.1-6.7,5.1-8.8,8.8c-2.1,3.7-3.2,7.9-3.2,12.1c-0.2,6.2,2.2,12.1,6.6,16.4c4.4,4.3,10.1,6.5,17.1,6.5
	c7.1,0,12.9-2.1,17.2-6.4s6.4-9.9,6.4-16.9c0.1-4.2-1-8.4-3-12.1c-2-3.5-4.9-6.5-8.4-8.4C534.4,268.2,530.4,267.2,526.3,267.2
	L526.3,267.2z"/>
<path class="st1" d="M594.2,259.7c8.8-0.2,17.1,3.5,22.9,10.1c5.5,5.9,8.5,13.7,8.4,21.8c0.1,20.8,0.1,31.4,0,31.7h-8.1v-13.7
	c-4.3,8-12,12.5-23.2,13.4c-9.2,0-16.7-3.1-22.5-9.4c-11.4-12.3-11.6-31.2-0.5-43.8C577.1,263.2,585.5,259.5,594.2,259.7z
	 M594.2,267.3c-6.2-0.1-12.2,2.5-16.4,7.1c-4.5,4.6-7,10.8-6.9,17.3c0,4.4,1.2,8.8,3.5,12.6c2.3,4,6.3,7.4,11.9,10.2
	c14.1,3.2,24.1-3.3,30-19.3c0.3-5-0.2-10-1.6-14.7c-1.1-2.2-2.5-4.2-4.2-6C606.4,269.8,600.5,267.2,594.2,267.3z"/>
<path class="st1" d="M634.4,300.1l-0.1-6.4c-0.1-2.7,0-5.4,0.4-8c0.8-6.9,2.5-12,5.2-15.2c2.3-2.6,5-4.8,8-6.5
	c4.9-2,10.2-2.9,15.5-2.8c4.4,0,8.8,1.1,12.6,3.4c3.7,2.1,6.6,5.3,8.2,9.2c1.6,3.9,2.5,9.9,2.5,18.2v31H679v-28.7
	c0-7-0.3-11.6-0.9-14c-0.9-4-2.7-6.8-5.4-8.5c-2.7-1.7-6.7-2.5-12-2.5c-4.5-0.1-8.9,1.4-12.5,4.1c-3.6,2.5-5.5,6.8-5.1,11.1
	c-0.7,3-1,8.5-1,16.4V323h-7.8V300.1z"/>
<path class="st1" d="M699.8,237.9c3.5,0,6.4,2.9,6.4,6.4s-2.9,6.4-6.4,6.4c-1.7,0-3.3-0.7-4.5-1.9c-1.2-1.2-1.9-2.8-1.9-4.5
	c0-1.7,0.6-3.3,1.9-4.5C696.5,238.5,698.1,237.9,699.8,237.9z M696,262.7h7.7V323H696V262.7z"/>
<path class="st1" d="M709,262h44l-34,54.1h32.9v6.9h-46.1l33.8-54.1H709V262z"/>
<path class="st1" d="M780.5,259.7c8.8-0.2,17.1,3.5,22.9,10.1c5.5,5.9,8.5,13.7,8.4,21.8c0.1,20.8,0.1,31.4,0,31.7h-8.1v-13.7
	c-4.3,8-12,12.5-23.2,13.4c-9.2,0-16.7-3.1-22.5-9.4c-11.4-12.3-11.6-31.2-0.5-43.8C763.3,263.2,771.7,259.5,780.5,259.7z
	 M780.5,267.3c-6.3-0.1-12.3,2.5-16.5,7.1c-4.5,4.6-7,10.8-6.9,17.3c0,4.4,1.2,8.8,3.5,12.6c2.3,4,6.3,7.4,11.9,10.2
	c14.1,3.2,24.1-3.3,30-19.3c0.4-5-0.2-10-1.6-14.7c-1.1-2.2-2.5-4.2-4.2-6C792.7,269.8,786.7,267.2,780.5,267.3z"/>
<path class="st1" d="M851,267.8l-5,5.2c-4.1-4-8.2-6-12.1-6c-2.4,0-4.7,0.8-6.4,2.5c-1.7,1.5-2.7,3.6-2.7,5.9c0.1,2,0.8,4,2.2,5.5
	c1.5,1.9,4.5,4,9.2,6.4c5.8,3,9.6,5.8,11.7,8.6c2,2.8,3,6.1,3,9.5c0.1,4.7-1.8,9.2-5.2,12.5c-3.4,3.4-8.1,5.2-12.9,5.1
	c-3.4,0-6.8-0.8-9.9-2.2c-3.1-1.4-5.7-3.6-7.8-6.2l4.9-5.5c3.9,4.5,8.1,6.7,12.5,6.7c2.9,0.1,5.7-1,7.8-3c2.1-1.7,3.2-4.3,3.3-7
	c0-2.2-0.7-4.3-2.1-5.9c-1.4-1.7-4.6-3.9-9.7-6.5c-5.4-2.7-9.1-5.5-11-8.3c-2-2.7-3-6-3-9.3c-0.1-4.3,1.6-8.4,4.7-11.4
	c3.1-3,7.4-4.7,11.7-4.5C839.8,259.7,845.4,262.4,851,267.8z"/>
<path class="st1" d="M851.6,261.2h8.1l20.6,46.4l20-46.4h8.2l-35.8,82.3h-8.1l11.5-26.5L851.6,261.2z"/>
<path class="st1" d="M936.4,259.7c8.8-0.2,17.1,3.5,22.9,10.1c5.4,6,8.4,13.8,8.2,21.8c0.1,8.2-3.1,16.1-8.7,22
	c-5.8,6.3-13.3,9.4-22.4,9.4c-9.1,0-16.6-3.1-22.5-9.4c-11.4-12.3-11.6-31.2-0.5-43.8C919.2,263.2,927.6,259.5,936.4,259.7z
	 M936.4,267.3c-6.2-0.1-12.2,2.5-16.4,7.1c-4.5,4.6-7,10.8-6.9,17.3c0,4.3,1.1,8.5,3.1,12.2c2,3.7,4.9,6.7,8.5,8.7
	c7.3,4.1,16.2,4.1,23.5,0c3.6-2.1,6.5-5.1,8.4-8.7c2.1-3.7,3.1-8,3.1-12.2c0.1-6.4-2.4-12.7-6.9-17.3
	C948.6,269.8,942.7,267.2,936.4,267.3z"/>
<path class="st1" d="M974.4,300.1l-0.1-6.4c-0.1-2.7,0-5.4,0.4-8c0.8-6.9,2.5-12,5.2-15.2c2.3-2.6,5-4.8,8-6.5
	c4.9-2,10.2-2.9,15.5-2.8c4.4,0,8.7,1.2,12.5,3.4c3.7,2.1,6.6,5.3,8.2,9.2c1.6,3.9,2.5,9.9,2.5,18.2v31h-7.6v-28.8
	c0-7-0.3-11.6-0.9-14c-0.9-4-2.7-6.8-5.4-8.5c-2.7-1.7-6.7-2.5-12-2.5c-4.5-0.1-8.9,1.4-12.5,4.1c-3.6,2.5-5.5,6.8-5.1,11.1
	c-0.7,3-1,8.5-1,16.4V323h-7.8L974.4,300.1z"/>
<path class="st1" d="M447.3,415l5.4,2.9c-1.5,3.2-3.6,6.1-6.2,8.6c-2.3,2.1-5,3.8-8,4.9c-3.2,1.2-6.6,1.7-10,1.7
	c-8.2,0-14.7-2.7-19.3-8.1c-8.9-10.1-9.3-25.1-1.1-35.7c5-6.4,11.7-9.6,20.1-9.6c8.6,0,15.4,3.3,20.6,9.9c3.7,4.7,5.5,10.5,5.5,17.4
	H409c0.1,5.9,2,10.8,5.6,14.6c3.5,3.7,8.3,5.7,13.4,5.6c2.6,0,5.1-0.5,7.5-1.4c2.3-0.8,4.4-2,6.2-3.6
	C443.9,420.1,445.8,417.7,447.3,415z M447.3,401.3c-0.6-3-1.9-5.9-3.8-8.4c-1.8-2.2-4-3.9-6.6-5.1c-2.7-1.3-5.6-1.9-8.6-1.9
	c-4.7-0.1-9.3,1.6-12.8,4.8c-2.6,2.4-4.5,5.9-5.9,10.5H447.3z"/>
<path class="st1" d="M482,431.3c-2.9,1.2-5.9,1.8-9,1.8c-5-0.3-8.9-2.9-11.8-7.8c-1.8-3.1-2.6-6.6-2.5-10.2v-52.9h6.5v24.6h12v5.6
	h-12V414c-0.2,5.3,1.6,9.4,5.4,12.3c3,1.5,6.5,1.3,9.4-0.4C480.8,428.2,481.5,430,482,431.3z"/>
<path class="st1" d="M485.4,362.5h6.6v40.2l23.4-20.5h9.6l-21.2,19.4l22.8,31.6h-9.2l-19.9-27.4l-5.4,4.5v22.9h-6.5V362.5z"/>
<path class="st1" d="M531.1,361.2c3,0,5.4,2.4,5.4,5.4s-2.4,5.4-5.4,5.4c-1.4,0-2.8-0.6-3.8-1.6c-1-1-1.6-2.4-1.6-3.8
	c0-1.4,0.5-2.8,1.6-3.8C528.3,361.8,529.7,361.2,531.1,361.2z M527.9,382.1h6.5v50.9h-6.5V382.1z"/>
<path class="st1" d="M542.6,413.8l-0.1-5.4c-0.1-2.3,0-4.5,0.3-6.8c0.7-5.8,2.1-10.1,4.4-12.9c2-2.2,4.2-4,6.8-5.5
	c4.1-1.7,8.6-2.5,13-2.3c3.7,0,7.4,1,10.6,2.9c3.1,1.8,5.5,4.5,6.9,7.8c1.4,3.3,2.1,8.4,2.1,15.3v26.2h-6.5v-24.3
	c0-5.9-0.2-9.8-0.7-11.8c-0.8-3.4-2.3-5.8-4.6-7.2s-5.6-2.1-10.1-2.1c-3.8,0-7.5,1.2-10.5,3.4c-3,2.1-4.6,5.7-4.3,9.4
	c-0.6,2.5-0.9,7.2-0.9,13.9v18.7h-6.5L542.6,413.8z"/>
<path class="st1" d="M594.9,362.5h6.5v70.6h-6.5V362.5z"/>
<path class="st1" d="M613,361.2c3,0.2,5.2,2.8,5,5.8c-0.2,2.7-2.3,4.8-5,5c-1.4,0-2.8-0.6-3.8-1.6c-1-1-1.6-2.4-1.6-3.8
	c0-1.4,0.5-2.8,1.6-3.8C610.2,361.7,611.6,361.2,613,361.2z M609.8,382.1h6.5v50.9h-6.5V382.1z"/>
<path class="st1" d="M625,362.5h6.5v40.2l23.5-20.5h9.6l-21.2,19.4l22.8,31.6H657l-20-27.4l-5.4,4.5v22.9H625V362.5z"/>
<path class="st1" d="M683.7,380.9h6.9l17.4,39.2l16.9-39.2h7l-30.2,69.5h-6.9l9.7-22.4L683.7,380.9z"/>
<path class="st1" d="M755.3,379.6c7.4-0.2,14.5,2.9,19.4,8.5c4.6,5,7.1,11.6,7,18.4c0.1,6.9-2.6,13.6-7.4,18.6c-4.9,5.3-11.3,8-19,8
	c-7.7,0-14.1-2.7-19-8c-9.7-10.4-9.8-26.4-0.4-37C740.8,382.6,747.9,379.5,755.3,379.6z M755.3,386.1c-5.3-0.1-10.3,2.1-13.9,6
	c-3.8,3.9-5.9,9.1-5.8,14.6c0,3.6,0.9,7.2,2.6,10.4c1.7,3.1,4.1,5.6,7.2,7.4c6.2,3.4,13.7,3.4,19.8,0c3-1.7,5.5-4.3,7.1-7.4
	c1.7-3.2,2.6-6.7,2.6-10.4c0.1-5.4-2-10.7-5.8-14.6C765.6,388.2,760.6,386,755.3,386.1L755.3,386.1z M745.9,360.9
	c1.4,0,2.8,0.6,3.8,1.6c1,1,1.6,2.4,1.6,3.8c0,1.5-0.5,2.9-1.6,3.9c-2,2.1-5.4,2.1-7.5,0.1c0,0-0.1-0.1-0.1-0.1
	c-1-1-1.6-2.4-1.6-3.9c0-1.4,0.5-2.8,1.6-3.8C743.1,361.4,744.5,360.8,745.9,360.9L745.9,360.9z M764.9,360.9c1.4,0,2.8,0.6,3.8,1.6
	c1,1,1.6,2.4,1.6,3.8c0,1.5-0.5,2.9-1.6,3.9c-1,1-2.4,1.6-3.8,1.6c-1.5,0-2.9-0.5-3.9-1.6c-1-1-1.6-2.4-1.6-3.9
	C759.4,363.3,761.8,360.9,764.9,360.9C764.8,360.9,764.9,360.9,764.9,360.9L764.9,360.9z"/>
<path class="st1" d="M787.4,413.8l-0.1-5.4c-0.1-2.3,0-4.5,0.3-6.8c0.7-5.8,2.1-10.1,4.4-12.9c2-2.2,4.2-4,6.8-5.5
	c4.1-1.7,8.6-2.5,13-2.3c3.7,0,7.4,1,10.6,2.9c3.1,1.8,5.5,4.5,6.9,7.8c1.4,3.3,2.1,8.4,2.1,15.3v26.2H825v-24.3
	c0-5.9-0.2-9.8-0.7-11.8c-0.8-3.4-2.3-5.8-4.6-7.2c-2.3-1.4-5.6-2.1-10.1-2.1c-3.8,0-7.5,1.2-10.5,3.4c-3,2.1-4.6,5.7-4.3,9.4
	c-0.6,2.5-0.9,7.2-0.9,13.9v18.7h-6.5V413.8z"/>
<path class="st1" d="M882.1,415l5.4,2.9c-1.5,3.2-3.6,6.1-6.2,8.6c-2.3,2.1-5,3.8-8,4.9c-3.2,1.2-6.6,1.7-10,1.7
	c-8.2,0-14.7-2.7-19.3-8.1c-8.9-10.1-9.3-25.1-1.1-35.7c5-6.4,11.7-9.6,20.1-9.6c8.6,0,15.5,3.3,20.6,9.9c3.7,4.7,5.5,10.5,5.5,17.4
	h-45.4c0.1,5.9,2,10.8,5.6,14.6c3.5,3.7,8.3,5.8,13.4,5.7c2.6,0,5.1-0.5,7.5-1.4c2.3-0.8,4.4-2,6.2-3.6
	C878.8,420.1,880.6,417.7,882.1,415z M882.1,401.3c-0.6-3-1.9-5.9-3.8-8.4c-1.8-2.2-4-3.9-6.6-5.1c-2.7-1.3-5.6-1.9-8.6-1.9
	c-4.7-0.1-9.3,1.6-12.8,4.8c-2.6,2.4-4.5,5.9-5.9,10.5H882.1z"/>
<path class="st1" d="M916.8,431.3c-2.9,1.2-5.9,1.8-9,1.8c-5-0.3-8.9-2.9-11.8-7.8c-1.8-3.1-2.6-6.6-2.5-10.2v-52.9h6.5v24.6h12v5.6
	h-12V414c-0.2,5.3,1.6,9.4,5.3,12.3c3,1.5,6.5,1.3,9.4-0.4C915.6,428.2,916.3,430,916.8,431.3z"/>
<path class="st1" d="M923,361.2c3,0.2,5.2,2.8,5,5.8c-0.2,2.7-2.3,4.8-5,5c-1.4,0-2.8-0.6-3.8-1.6c-1-1-1.6-2.4-1.6-3.8
	c0-1.4,0.5-2.8,1.6-3.8C920.2,361.7,921.6,361.2,923,361.2z M919.8,382.1h6.5v50.9h-6.5V382.1z"/>
<path class="st1" d="M934.4,413.3v-8.1c0.6-6.9,2-12,4.3-15.2c1.9-2.9,4.5-5.3,7.6-7c2.1-1.3,5-2,8.8-2.1c2.6,0,5.1,0.5,7.5,1.4
	c2.2,0.7,4.2,2,5.9,3.7c1.7,2.1,3.1,4.5,4.2,7c1.2-2.6,2.8-5,4.8-7c1.4-1.2,3-2.2,4.7-3c1.3-0.8,4.3-1.5,9-2.1c3.5,0,7,0.9,10.1,2.6
	c3.1,1.6,5.5,4.2,6.8,7.5c1.3,3.2,2,8,2,14.3v27.8h-6.6v-27.8c0-5.4-0.4-9.2-1.2-11.2c-0.8-2-2.2-3.8-4-4.9c-2-1.3-4.4-1.9-6.8-1.9
	c-5,0.3-9.2,2.8-12.8,7.3c-1.4,1.9-2.4,6.2-3.1,12.8v25.8h-6.5V407c0-6.1-0.7-10.3-2-12.5c-1.2-2.1-2.9-3.9-4.8-5.3
	c-2.1-1.4-4.5-2.1-7-2c-2.8-0.1-5.5,0.7-7.8,2.3c-2.3,1.8-4.1,4.2-5.1,6.9c-1.2,3.1-1.7,8.1-1.5,15V433h-6.5L934.4,413.3z"/>
<path class="st1" d="M1021.2,361.2c3,0,5.4,2.4,5.4,5.4s-2.4,5.4-5.4,5.4c-1.4,0-2.8-0.6-3.8-1.6c-1-1-1.6-2.4-1.6-3.8
	c0-1.4,0.5-2.8,1.6-3.8C1018.4,361.8,1019.8,361.2,1021.2,361.2z M1018,382.1h6.5v50.9h-6.5V382.1z"/>
<polygon class="st1" points="339,37.1 310.6,37.1 282.3,37.1 253.9,37.1 225.6,37.1 197.2,37.1 168.9,37.1 140.5,37.1 112.2,37.1 
	83.8,37.1 55.5,37.1 55.5,65.5 55.5,93.8 55.5,122.2 55.5,150.5 55.5,178.8 55.5,207.2 55.5,235.5 55.5,263.9 55.5,292.2 
	55.5,320.6 55.5,348.9 55.5,377.3 55.5,405.6 55.5,434 83.8,434 112.2,434 140.5,434 168.9,434 197.2,434 225.6,434 253.9,434 
	282.3,434 310.6,434 339,434 367.3,434 367.3,405.6 367.3,377.3 367.3,348.9 367.3,320.6 367.3,292.2 367.3,263.9 367.3,235.5 
	367.3,207.2 367.3,178.8 367.3,150.5 367.3,122.2 367.3,93.8 367.3,65.5 367.3,37.1 "/>
<g class="st2">
	<path class="st3" d="M131.9,91c-6-0.1-11.7,2.3-15.8,6.6c-4.3,4.2-6.7,9.9-6.6,15.9c-0.1,6,2.3,11.8,6.6,16
		c4.1,4.4,9.8,6.8,15.8,6.7c6,0.1,11.8-2.4,15.9-6.7c4.3-4.2,6.7-10,6.7-16C154.5,101.1,144.4,91,131.9,91z"/>
	<rect x="117.9" y="156.2" class="st3" width="28.4" height="226.8"/>
	<polygon class="st3" points="316.3,156.2 174.1,156.2 174.1,181.5 273.2,181.5 163.7,382.9 312.8,382.9 312.8,357.4 206.4,357.4 	
		"/>
</g>
<path class="st4" d="M126.3,85.3c-6-0.1-11.7,2.3-15.8,6.7c-4.3,4.2-6.7,9.9-6.6,15.9c-0.1,6,2.3,11.8,6.6,16
	c4.1,4.4,9.8,6.8,15.8,6.7c6,0.1,11.8-2.4,15.9-6.7c4.3-4.2,6.7-10,6.7-16C148.8,95.5,138.7,85.4,126.3,85.3L126.3,85.3z"/>
<rect x="112.2" y="150.5" class="st4" width="28.4" height="226.8"/>
<polygon class="st4" points="310.6,150.5 168.4,150.5 168.4,175.9 267.5,175.9 158,377.3 307.1,377.3 307.1,351.7 200.7,351.7 "/>
</svg>
