<?xml version="1.0" encoding="utf-8"?>
<!-- Generator: Adobe Illustrator 19.2.1, SVG Export Plug-In . SVG Version: 6.00 Build 0)  -->
<svg version="1.1" id="Layer_1" xmlns="http://www.w3.org/2000/svg" xmlns:xlink="http://www.w3.org/1999/xlink" x="0px" y="0px"
	 viewBox="0 0 396.9 708.7" style="enable-background:new 0 0 396.9 708.7;" xml:space="preserve">
<style type="text/css">
	.st0{fill:#FFFFFF;stroke:#FFFFFF;stroke-miterlimit:10;}
	.st1{fill:#D35B30;}
	.st2{opacity:0.4;}
	.st3{fill:#595A5C;}
	.st4{fill:#FFFFFF;}
</style>
<rect y="0" class="st0" width="396.9" height="708.7"/>
<title>iz_logo</title>
<path class="st1" d="M42.5,456.8h7.3v45.1l26.2-23h10.8l-23.8,21.7l25.6,35.4H78.3L56,505.3l-6.1,5.1v25.7h-7.4V456.8z"/>
<path class="st1" d="M114,476.1c8.3-0.2,16.3,3.3,21.8,9.5c5.1,5.6,7.9,13,7.8,20.7c0.1,7.8-2.9,15.3-8.3,20.9
	c-5.5,6-12.6,8.9-21.3,8.9s-15.8-3-21.3-8.9c-10.8-11.6-11-29.6-0.4-41.5C97.7,479.4,105.7,475.9,114,476.1z M114,483.3
	c-5.9-0.1-11.6,2.4-15.6,6.7c-4.3,4.4-6.6,10.3-6.5,16.4c0,4.1,1,8.1,3,11.6c1.9,3.5,4.6,6.3,8.1,8.3c6.9,3.9,15.3,3.9,22.2,0
	c3.4-2,6.2-4.8,8-8.3c2-3.5,3-7.5,3-11.6c0.1-6.1-2.3-12-6.6-16.4C125.6,485.6,119.9,483.2,114,483.3z"/>
<path class="st1" d="M150,514.4l-0.1-6.1c-0.1-2.5,0-5.1,0.4-7.6c0.8-6.6,2.4-11.4,5-14.4c2.2-2.4,4.8-4.5,7.6-6.2
	c4.6-1.9,9.6-2.8,14.6-2.6c4.2,0,8.3,1.1,11.9,3.3c3.5,2,6.2,5.1,7.8,8.8c1.6,3.7,2.3,9.4,2.3,17.2v29.4h-7.3v-27.3
	c0-6.6-0.3-11-0.8-13.2c-0.9-3.8-2.6-6.5-5.1-8c-2.6-1.6-6.3-2.4-11.3-2.4c-4.3-0.1-8.4,1.3-11.8,3.9c-3.4,2.4-5.2,6.4-4.8,10.5
	c-0.7,2.8-1,8-1,15.6v21H150V514.4z"/>
<path class="st1" d="M264.7,523.1c0,8-0.7,13.9-2.1,17.6c-1.8,5.1-5.3,9.4-10,12.1c-5.2,2.9-11.1,4.4-17.1,4.3
	c-4.5,0.1-8.9-0.6-13.1-2.1c-3.5-1.2-6.7-3.1-9.4-5.6c-2.9-3-5.2-6.4-6.7-10.2h7.9c1.9,3.5,4.8,6.5,8.4,8.4c4,1.9,8.3,2.9,12.7,2.7
	c4.4,0.1,8.7-0.8,12.6-2.8c3.1-1.5,5.7-4,7.3-7c1.4-2.8,2.2-7.4,2.2-13.7v-2.9c-2.7,3.5-6.1,6.2-10.1,8.1
	c-8.7,4.1-18.9,3.7-27.3-1.1c-4.5-2.5-8.2-6.1-10.7-10.5c-5.1-9.1-5-20.3,0.2-29.3c5.3-9.1,14.9-14.7,25.4-14.8c4,0,7.9,0.6,11.6,2
	c3.8,1.6,7.3,3.6,10.4,6.2c3.4,2.8,6,8.2,8,16.1C264.8,501.4,264.7,509,264.7,523.1z M235.7,483.2c-4,0-8,1-11.5,3
	c-3.5,2-6.4,4.8-8.3,8.3c-2,3.5-3,7.5-3,11.5c-0.2,5.8,2.1,11.5,6.3,15.6c4.2,4.1,9.6,6.2,16.2,6.2c6.8,0,12.2-2,16.3-6.1
	s6.1-9.4,6.1-16c0.1-4-0.9-8-2.8-11.5c-1.9-3.4-4.6-6.1-8-8C243.5,484.1,239.7,483.1,235.7,483.2L235.7,483.2z"/>
<path class="st1" d="M272.4,509.9V503c0.4-2.9,1.2-5.7,2.4-8.4c2.4-6,5.7-10.4,9.7-13.1s7.5-4.1,10.1-4.2c2.3,0.1,4.5,0.8,6.4,2
	l-3.8,6.1c-3.2-1.2-6.4-0.2-9.5,2.9c-3,2.8-5.2,6.3-6.5,10.1c-0.9,3.2-1.4,9.3-1.4,18.2V536h-7.5L272.4,509.9z"/>
<path class="st1" d="M346.4,515.7l6.1,3.3c-1.7,3.6-4,6.9-6.9,9.6c-2.6,2.4-5.7,4.3-9,5.5c-3.6,1.3-7.4,2-11.2,1.9
	c-9.3,0-16.5-3-21.7-9.2c-10-11.3-10.5-28.1-1.2-40c5.6-7.2,13.1-10.8,22.5-10.8c9.6,0,17.3,3.7,23.1,11.1
	c4.1,5.2,6.2,11.7,6.2,19.5h-51c0.1,6.7,2.2,12.1,6.3,16.4c3.9,4.2,9.4,6.5,15.1,6.4c2.9,0,5.7-0.5,8.4-1.5c2.6-0.9,4.9-2.3,7-4
	C342.6,521.5,344.7,518.7,346.4,515.7z M346.4,500.4c-0.7-3.4-2.2-6.6-4.3-9.4c-2-2.4-4.5-4.4-7.4-5.7c-3-1.4-6.3-2.2-9.7-2.2
	c-5.3-0.1-10.4,1.8-14.3,5.4c-2.9,2.7-5.1,6.6-6.6,11.8H346.4z"/>
<path class="st1" d="M58.1,568c4.4-0.1,8.6,1.7,11.5,5c2.7,3,4.2,6.9,4.1,10.9c0,4.1-1.5,8-4.4,11c-2.9,3.1-7,4.8-11.2,4.7
	c-4.2,0.1-8.3-1.6-11.2-4.7c-5.7-6.1-5.8-15.6-0.2-21.9C49.5,569.7,53.7,567.9,58.1,568z M58.1,571.8c-3.1,0-6.1,1.3-8.2,3.6
	c-2.3,2.3-3.5,5.4-3.4,8.6c0,2.1,0.5,4.2,1.6,6c1,1.8,2.4,3.3,4.2,4.4c3.6,2,8.1,2,11.7,0c1.8-1,3.3-2.5,4.2-4.4
	c1-1.9,1.6-4,1.6-6.1c0.1-3.2-1.2-6.3-3.4-8.6C64.2,573,61.2,571.7,58.1,571.8L58.1,571.8z"/>
<path class="st1" d="M76.2,585.8v-3.6c0.2-1.5,0.6-3,1.3-4.4c1-2.8,2.8-5.2,5.1-6.9c2.1-1.5,3.9-2.2,5.3-2.2c1.2,0,2.4,0.4,3.4,1
	l-2,3.2c-1.7-0.6-3.4-0.1-5,1.5c-1.6,1.5-2.7,3.3-3.4,5.3c-0.5,1.7-0.7,4.9-0.7,9.6v10.2h-3.9V585.8z"/>
<path class="st1" d="M119.7,592.7c0,4.2-0.4,7.3-1.1,9.3c-0.9,2.7-2.8,4.9-5.3,6.4c-2.7,1.6-5.9,2.3-9,2.2c-2.4,0-4.7-0.3-6.9-1.1
	c-1.9-0.6-3.6-1.6-5-2.9c-1.5-1.6-2.7-3.4-3.6-5.4H93c1,1.9,2.5,3.4,4.4,4.4c2.1,1,4.4,1.5,6.7,1.4c2.3,0.1,4.6-0.4,6.6-1.5
	c1.6-0.8,3-2.1,3.9-3.7c0.8-1.5,1.2-3.9,1.2-7.2v-1.5c-1.4,1.8-3.2,3.3-5.3,4.3c-4.6,2.2-10,1.9-14.4-0.6c-2.4-1.3-4.3-3.2-5.6-5.6
	c-2.7-4.8-2.6-10.7,0.1-15.5c2.8-4.8,7.9-7.7,13.4-7.8c2.1,0,4.2,0.3,6.1,1c2,0.8,3.8,1.9,5.5,3.3c1.8,1.5,3.2,4.3,4.2,8.5
	C119.7,581.3,119.7,585.3,119.7,592.7z M104.4,571.7c-2.1,0-4.2,0.5-6.1,1.6c-1.8,1-3.3,2.5-4.4,4.4c-1.1,1.8-1.6,3.9-1.6,6.1
	c-0.1,3.1,1.1,6.1,3.3,8.2c4.9,4.3,12.2,4.3,17.1,0c2.2-2.3,3.4-5.3,3.2-8.5c0-2.1-0.5-4.2-1.5-6.1c-1-1.8-2.4-3.2-4.2-4.2
	C108.5,572.2,106.5,571.7,104.4,571.7L104.4,571.7z"/>
<path class="st1" d="M138.4,568c4.4-0.1,8.6,1.7,11.4,5c2.8,3,4.3,6.9,4.2,10.9c0,10.4,0,15.7,0,15.8h-4v-6.8c-2.1,4-6,6.2-11.6,6.7
	c-4.2,0.1-8.3-1.6-11.2-4.7c-5.7-6.1-5.8-15.6-0.2-21.9C129.8,569.8,134,567.9,138.4,568z M138.4,571.8c-3.1,0-6.1,1.3-8.2,3.6
	c-2.3,2.3-3.5,5.4-3.4,8.6c0,2.2,0.6,4.4,1.8,6.3c1.5,2.3,3.5,4,6,5.1c7,1.6,12-1.6,15-9.6c0.2-2.5-0.1-5-0.8-7.4
	c-0.5-1.1-1.3-2.1-2.1-3C144.5,573,141.5,571.7,138.4,571.8L138.4,571.8z"/>
<path class="st1" d="M158.5,588.1l-0.1-3.2c-0.1-1.3,0-2.7,0.2-4c0.4-3.5,1.3-6,2.6-7.6c1.2-1.3,2.5-2.4,4-3.3
	c2.4-1,5.1-1.5,7.7-1.4c2.2,0,4.4,0.6,6.3,1.7c1.8,1,3.3,2.7,4.1,4.6c0.8,1.9,1.2,5,1.2,9.1v15.5h-3.8v-14.4c0.1-2.3-0.1-4.7-0.4-7
	c-0.3-1.7-1.3-3.3-2.7-4.2c-1.9-1-3.9-1.4-6-1.3c-2.2,0-4.4,0.7-6.2,2c-1.8,1.3-2.7,3.4-2.5,5.5c-0.4,2.7-0.6,5.5-0.5,8.2v11h-3.9
	L158.5,588.1z"/>
<path class="st1" d="M191.1,557.1c1.8,0,3.2,1.4,3.2,3.2s-1.4,3.2-3.2,3.2c-0.8,0-1.7-0.3-2.2-1c-0.6-0.6-0.9-1.4-0.9-2.3
	c0-0.8,0.3-1.7,0.9-2.3C189.4,557.4,190.2,557,191.1,557.1z M189.2,569.4h3.8v30.1h-3.9L189.2,569.4z"/>
<path class="st1" d="M195.7,569.1h22l-17,27h16.4v3.4h-23l16.9-27h-15.3L195.7,569.1z"/>
<path class="st1" d="M231.4,568c4.4-0.1,8.6,1.7,11.4,5c2.8,3,4.3,6.9,4.2,10.9c0,10.4,0,15.7,0,15.8h-4v-6.8c-2.1,4-6,6.2-11.6,6.7
	c-4.2,0.1-8.3-1.6-11.2-4.7c-5.7-6.1-5.8-15.6-0.2-21.9C222.8,569.7,227,567.9,231.4,568z M231.4,571.8c-3.1,0-6.1,1.3-8.2,3.6
	c-2.3,2.3-3.5,5.4-3.4,8.6c0,2.2,0.6,4.4,1.8,6.3c1.5,2.3,3.5,4,6,5.1c7,1.6,12-1.6,15-9.6c0.2-2.5-0.1-5-0.8-7.4
	c-0.5-1.1-1.3-2.1-2.1-3C237.5,573,234.5,571.7,231.4,571.8L231.4,571.8z"/>
<path class="st1" d="M266.6,572l-2.5,2.6c-2.1-2-4.1-3-6-3c-1.2,0-2.3,0.4-3.2,1.2c-0.9,0.7-1.3,1.8-1.3,2.9c0,1,0.4,2,1.1,2.8
	c1.3,1.4,2.9,2.4,4.6,3.2c2.9,1.5,4.8,2.9,5.8,4.3c1,1.4,1.5,3,1.5,4.8c0,2.4-0.9,4.6-2.6,6.3c-1.7,1.7-4,2.6-6.5,2.6
	c-1.7,0-3.4-0.4-4.9-1.1c-1.5-0.7-2.9-1.8-3.9-3.1l2.4-2.8c2,2.2,4.1,3.3,6.3,3.3c1.4,0,2.9-0.5,3.9-1.5c1-0.9,1.6-2.2,1.6-3.5
	c0-1.1-0.4-2.2-1.1-3c-1.4-1.4-3-2.4-4.8-3.2c-2.1-0.9-4-2.4-5.5-4.2c-1-1.4-1.5-3-1.5-4.7c-0.1-2.1,0.8-4.2,2.3-5.7
	c1.6-1.5,3.7-2.3,5.9-2.3C261,568,263.8,569.3,266.6,572z"/>
<path class="st1" d="M266.9,568.7h4.1l10.3,23.2l10-23.2h4.1l-17.9,41.1h-4.1l5.8-13.3L266.9,568.7z"/>
<path class="st1" d="M309.3,568c4.4-0.1,8.6,1.7,11.5,5c2.7,3,4.2,6.9,4.1,10.9c0,4.1-1.5,8-4.4,11c-6.1,6.2-16,6.3-22.2,0.2
	c-0.1-0.1-0.1-0.1-0.2-0.2c-5.7-6.1-5.8-15.6-0.2-21.9C300.7,569.7,304.9,567.9,309.3,568z M309.3,571.8c-3.1,0-6.1,1.3-8.2,3.6
	c-2.3,2.3-3.5,5.4-3.4,8.6c0,2.1,0.5,4.2,1.6,6.1c1,1.8,2.4,3.3,4.2,4.4c3.6,2,8.1,2,11.7,0c1.8-1,3.2-2.5,4.2-4.4
	c1-1.9,1.6-4,1.5-6.1c0.1-3.2-1.2-6.3-3.4-8.6C315.4,573.1,312.4,571.7,309.3,571.8L309.3,571.8z"/>
<path class="st1" d="M328.3,588.1l0-3.2c-0.1-1.3,0-2.7,0.2-4c0.4-3.5,1.3-6,2.6-7.6c1.2-1.3,2.5-2.4,4-3.3c2.4-1,5.1-1.5,7.7-1.4
	c2.2,0,4.4,0.6,6.3,1.7c1.8,1,3.3,2.7,4.1,4.6c0.8,1.9,1.2,5,1.2,9.1v15.5h-3.8v-14.4c0.1-2.3-0.1-4.7-0.4-7
	c-0.3-1.7-1.3-3.3-2.7-4.2c-1.9-1-3.9-1.4-6-1.3c-2.2,0-4.4,0.7-6.2,2c-1.8,1.3-2.7,3.4-2.5,5.5c-0.4,2.7-0.6,5.5-0.5,8.2v11h-3.9
	L328.3,588.1z"/>
<path class="st1" d="M65,645.5l2.7,1.5c-0.8,1.6-1.8,3.1-3.1,4.3c-1.2,1.1-2.5,1.9-4,2.5c-1.6,0.6-3.3,0.9-5,0.8
	c-4.1,0-7.3-1.4-9.7-4.1c-4.4-5-4.6-12.5-0.5-17.8c2.3-3.1,6.1-4.9,10-4.8c4-0.1,7.9,1.7,10.3,4.9c1.9,2.5,2.9,5.5,2.8,8.7H45.9
	c0,2.7,1,5.3,2.8,7.3c1.7,1.9,4.2,2.9,6.7,2.8c1.3,0,2.6-0.2,3.8-0.7c1.1-0.4,2.2-1,3.1-1.8C63.3,648.1,64.3,646.9,65,645.5z
	 M65,638.7c-0.3-1.5-1-2.9-1.9-4.2c-0.9-1.1-2-1.9-3.3-2.5c-1.3-0.7-2.8-1-4.3-1c-2.4,0-4.6,0.8-6.4,2.4c-1.4,1.4-2.5,3.3-2.9,5.3
	H65z"/>
<path class="st1" d="M82.3,653.7c-1.4,0.6-3,0.9-4.5,0.9c-2.5-0.2-4.8-1.6-5.9-3.9c-0.9-1.6-1.3-3.3-1.3-5.1v-26.4h3.3v12.3h6v2.8
	h-6V645c-0.2,2.4,0.8,4.7,2.7,6.1c1.5,0.7,3.3,0.6,4.7-0.2C81.7,652.1,82,653,82.3,653.7z"/>
<path class="st1" d="M84,619.3h3.3v20.1L99,629.1h4.8l-10.6,9.7l11.4,15.8H100l-10-13.7l-2.7,2.3v11.4H84V619.3z"/>
<path class="st1" d="M106.9,618.7c1.5,0,2.7,1.2,2.7,2.7s-1.2,2.7-2.7,2.7c-0.7,0-1.4-0.3-1.9-0.8c-0.5-0.5-0.8-1.2-0.8-1.9
	c0-0.7,0.3-1.4,0.8-1.9C105.5,618.9,106.2,618.7,106.9,618.7z M105.3,629.1h3.3v25.4h-3.3V629.1z"/>
<path class="st1" d="M112.6,644.9v-2.7c-0.1-1.1,0-2.3,0.2-3.4c0.3-2.9,1.1-5.1,2.2-6.4c1-1.1,2.1-2,3.4-2.8
	c2.1-0.8,4.3-1.2,6.5-1.2c1.9,0,3.7,0.5,5.3,1.5c1.5,0.9,2.8,2.3,3.5,3.9c0.8,2.5,1.1,5.1,1,7.7v13.1h-3.2v-12.1
	c0.1-2-0.1-3.9-0.4-5.9c-0.2-1.5-1.1-2.8-2.3-3.6c-1.5-0.8-3.3-1.2-5-1.1c-1.9,0-3.7,0.6-5.3,1.7c-1.5,1.1-2.3,2.8-2.1,4.7
	c-0.4,2.3-0.5,4.6-0.4,6.9v9.3h-3.3L112.6,644.9z"/>
<path class="st1" d="M138.7,619.3h3.3v35.3h-3.3L138.7,619.3z"/>
<path class="st1" d="M147.8,618.7c1.5,0,2.7,1.2,2.7,2.7s-1.2,2.7-2.7,2.7l0,0c-0.7,0-1.4-0.3-1.9-0.8c-0.5-0.5-0.8-1.2-0.8-1.9
	c0-0.7,0.3-1.4,0.8-1.9C146.4,618.9,147,618.6,147.8,618.7z M146.1,629.1h3.3v25.4h-3.3V629.1z"/>
<path class="st1" d="M153.8,619.3h3.2v20.1l11.7-10.3h4.8l-10.6,9.7l11.4,15.8h-4.6l-10-13.7l-2.7,2.3v11.4h-3.3L153.8,619.3z"/>
<path class="st1" d="M183.1,628.5h3.4l8.7,19.6l8.4-19.6h3.5L192,663.2h-3.4l4.9-11.2L183.1,628.5z"/>
<path class="st1" d="M218.9,627.9c3.7-0.1,7.2,1.5,9.7,4.2c2.3,2.5,3.5,5.8,3.5,9.2c0,3.5-1.3,6.8-3.7,9.3
	c-5.1,5.2-13.5,5.3-18.8,0.2c-0.1-0.1-0.1-0.1-0.2-0.2c-4.8-5.2-4.9-13.2-0.2-18.5C211.6,629.3,215.2,627.8,218.9,627.9z
	 M218.9,631.1c-2.6,0-5.1,1.1-6.9,3c-1.9,1.9-3,4.6-2.9,7.3c0,1.8,0.4,3.6,1.3,5.2c0.8,1.5,2.1,2.8,3.6,3.7c3.1,1.7,6.8,1.7,9.9,0
	c1.5-0.9,2.7-2.1,3.6-3.7c0.9-1.6,1.3-3.4,1.3-5.2c0.1-2.7-1-5.3-2.9-7.3C224,632.1,221.5,631,218.9,631.1z M214.1,618.5
	c0.7,0,1.4,0.3,1.9,0.8c0.5,0.5,0.8,1.2,0.8,1.9c0,0.7-0.3,1.4-0.8,1.9c-1,1-2.7,1.1-3.7,0.1c0,0,0,0-0.1-0.1
	c-0.5-0.5-0.8-1.2-0.8-1.9c0-0.7,0.3-1.4,0.8-1.9C212.7,618.8,213.4,618.5,214.1,618.5z M223.6,618.5c0.7,0,1.4,0.3,1.9,0.8
	c0.5,0.5,0.8,1.2,0.8,1.9c0,0.7-0.3,1.4-0.8,1.9c-0.5,0.5-1.2,0.8-1.9,0.8c-0.7,0-1.4-0.3-1.9-0.8c-0.5-0.5-0.8-1.2-0.8-1.9
	C220.9,619.7,222.1,618.5,223.6,618.5C223.6,618.5,223.6,618.5,223.6,618.5L223.6,618.5z"/>
<path class="st1" d="M234.9,644.9v-2.7c-0.1-1.1,0-2.3,0.2-3.4c0.3-2.9,1.1-5.1,2.2-6.4c1-1.1,2.1-2,3.4-2.8
	c2.1-0.8,4.3-1.2,6.5-1.2c1.9,0,3.7,0.5,5.3,1.5c1.5,0.9,2.8,2.3,3.5,3.9c0.8,2.5,1.1,5.1,1,7.7v13.1h-3.2v-12.1
	c0.1-2-0.1-3.9-0.4-5.9c-0.3-1.4-1.1-2.7-2.3-3.5c-1.5-0.8-3.3-1.2-5-1.1c-1.9,0-3.7,0.6-5.3,1.7c-1.5,1.1-2.3,2.8-2.1,4.7
	c-0.4,2.3-0.5,4.6-0.4,6.9v9.3h-3.3L234.9,644.9z"/>
<path class="st1" d="M282.2,645.5l2.7,1.5c-0.8,1.6-1.8,3.1-3.1,4.3c-1.2,1.1-2.5,1.9-4,2.5c-1.6,0.6-3.3,0.9-5,0.8
	c-4.1,0-7.3-1.4-9.6-4.1c-4.4-5-4.6-12.5-0.5-17.8c2.3-3.1,6.1-4.9,10-4.8c4-0.1,7.9,1.7,10.3,4.9c1.9,2.5,2.9,5.5,2.8,8.7H263
	c0,2.7,1,5.3,2.8,7.3c1.7,1.9,4.2,2.9,6.7,2.8c1.3,0,2.6-0.2,3.8-0.7c1.1-0.4,2.2-1,3.1-1.8C280.5,648.1,281.4,646.9,282.2,645.5z
	 M282.2,638.7c-0.3-1.5-1-2.9-1.9-4.2c-0.9-1.1-2-1.9-3.3-2.5c-1.3-0.7-2.8-1-4.3-1c-2.4,0-4.6,0.8-6.4,2.4
	c-1.4,1.4-2.5,3.3-2.9,5.3H282.2z"/>
<path class="st1" d="M299.5,653.7c-1.4,0.6-3,0.9-4.5,0.9c-2.5-0.2-4.8-1.6-5.9-3.9c-0.9-1.6-1.3-3.3-1.3-5.1v-26.4h3.3v12.3h6v2.8
	h-6V645c-0.2,2.4,0.8,4.7,2.7,6.1c1.5,0.7,3.3,0.6,4.7-0.2C298.9,652.1,299.2,653,299.5,653.7z"/>
<path class="st1" d="M302.6,618.7c1.5,0,2.7,1.2,2.7,2.7s-1.2,2.7-2.7,2.7c-0.7,0-1.4-0.3-1.9-0.8c-0.5-0.5-0.8-1.2-0.8-1.9
	c0-0.7,0.3-1.4,0.8-1.9C301.2,618.9,301.9,618.7,302.6,618.7z M301,629.1h3.3v25.4H301V629.1z"/>
<path class="st1" d="M308.3,644.7v-4.1c0.3-3.5,1-6,2.2-7.6c1-1.5,2.3-2.7,3.8-3.5c1.3-0.7,2.9-1.1,4.4-1.1c1.3,0,2.5,0.2,3.7,0.7
	c1.1,0.4,2.1,1,2.9,1.8c0.9,1.1,1.6,2.2,2.1,3.5c0.6-1.3,1.4-2.5,2.4-3.5c0.7-0.6,1.5-1.1,2.3-1.5c1.4-0.6,2.9-0.9,4.5-1
	c1.8,0,3.5,0.5,5,1.3c1.5,0.8,2.7,2.1,3.4,3.7c0.8,2.3,1.1,4.7,1,7.2v13.9h-3.3v-13.9c0.1-1.9-0.1-3.8-0.6-5.6c-0.4-1-1.1-1.9-2-2.5
	c-1-0.6-2.2-1-3.4-0.9c-2.6,0.2-4.9,1.5-6.4,3.6c-0.7,1-1.2,3.1-1.6,6.4v12.9h-3.3v-13c0-3.1-0.3-5.1-1-6.3c-0.6-1-1.4-1.9-2.4-2.6
	c-1-0.7-2.3-1-3.5-1c-1.4,0-2.7,0.4-3.9,1.2c-1.2,0.9-2.1,2.1-2.5,3.5c-0.6,1.5-0.9,4-0.7,7.5v10.8h-3.2L308.3,644.7z"/>
<path class="st1" d="M351.6,618.7c1.5,0,2.7,1.2,2.7,2.7s-1.2,2.7-2.7,2.7c-0.7,0-1.4-0.3-1.9-0.8c-0.5-0.5-0.8-1.2-0.8-1.9
	c0-0.7,0.3-1.4,0.8-1.9C350.2,618.9,350.9,618.7,351.6,618.7z M350,629.1h3.3v25.4H350V629.1z"/>
<polygon class="st1" points="326,41.7 297.6,41.7 269.3,41.7 240.9,41.7 212.6,41.7 184.3,41.7 155.9,41.7 127.6,41.7 99.2,41.7 
	70.9,41.7 42.5,41.7 42.5,70.1 42.5,98.4 42.5,126.8 42.5,155.1 42.5,183.5 42.5,211.8 42.5,240.2 42.5,268.5 42.5,296.9 
	42.5,325.2 42.5,353.6 42.5,381.9 42.5,410.3 42.5,438.6 70.9,438.6 99.2,438.6 127.6,438.6 155.9,438.6 184.3,438.6 212.6,438.6 
	240.9,438.6 269.3,438.6 297.6,438.6 326,438.6 354.3,438.6 354.3,410.3 354.3,381.9 354.3,353.6 354.3,325.2 354.3,296.9 
	354.3,268.5 354.3,240.2 354.3,211.8 354.3,183.5 354.3,155.1 354.3,126.8 354.3,98.4 354.3,70.1 354.3,41.7 "/>
<g class="st2">
	<path class="st3" d="M119,95.6c-6-0.1-11.7,2.3-15.8,6.6c-4.3,4.2-6.7,9.9-6.6,15.9c-0.1,6,2.3,11.8,6.6,16
		c4.1,4.4,9.8,6.8,15.8,6.7c6,0.1,11.8-2.4,15.9-6.7c4.3-4.2,6.7-10,6.7-16C141.5,105.7,131.4,95.7,119,95.6z"/>
	<rect x="104.9" y="160.8" class="st3" width="28.3" height="226.8"/>
	<polygon class="st3" points="303.3,160.8 161.1,160.8 161.1,186.2 260.2,186.2 150.7,387.6 299.8,387.6 299.8,362 193.4,362 	"/>
</g>
<path class="st4" d="M113.3,90c-6-0.1-11.7,2.3-15.8,6.6c-4.3,4.2-6.7,9.9-6.6,15.9c-0.1,6,2.3,11.8,6.6,16
	c4.1,4.4,9.8,6.8,15.8,6.7c6,0.1,11.8-2.4,15.9-6.7c4.3-4.2,6.7-10,6.7-16C135.8,100.1,125.7,90,113.3,90z"/>
<rect x="99.2" y="155.1" class="st4" width="28.3" height="226.8"/>
<polygon class="st4" points="297.6,155.1 155.4,155.1 155.4,180.5 254.5,180.5 145,381.9 294.1,381.9 294.1,356.4 187.8,356.4 "/>
</svg>
