<svg id="Layer_1" data-name="Layer 1" xmlns="http://www.w3.org/2000/svg" viewBox="0 0 396.85 708.66"><defs><style>.cls-1{fill:#ecb731;}.cls-2{fill:#a98623;}.cls-3{fill:#fff;}.cls-4{fill:none;stroke:#fff;stroke-miterlimit:10;}</style></defs><title>izevent</title><polygon class="cls-1" points="43.26 41.75 43.26 70.03 43.26 98.31 43.26 126.59 43.26 154.87 43.26 183.14 43.26 211.43 43.26 239.7 43.26 267.98 43.26 296.26 43.26 324.54 43.26 352.82 43.26 381.1 43.26 409.37 43.26 437.65 71.54 437.65 99.82 437.65 128.1 437.65 156.38 437.65 184.66 437.65 212.94 437.65 241.21 437.65 269.49 437.65 297.77 437.65 326.05 437.65 354.33 437.65 354.33 41.75 43.26 41.75"/><rect class="cls-2" x="105.48" y="160.52" width="28.28" height="226.23"/><polygon class="cls-2" points="303.43 160.52 161.56 160.52 161.56 185.82 260.43 185.82 151.16 386.75 299.9 386.75 299.9 361.25 193.81 361.25 303.43 160.52"/><path class="cls-3" d="M128.47,120a17.15,17.15,0,0,1-3.21,4.41,17,17,0,0,1-4.12,3.1,15.85,15.85,0,0,1-7.57,1.82A15.65,15.65,0,0,1,102,124.45a16.88,16.88,0,0,1-3.21-19,17.43,17.43,0,0,1,7.36-7.54l1.89,3.72a12.18,12.18,0,0,0-3.12,2.32,12.44,12.44,0,0,0-2.4,3.33,12.65,12.65,0,0,0,2.4,14.24,11.74,11.74,0,0,0,8.71,3.68,11.88,11.88,0,0,0,5.67-1.37,12.67,12.67,0,0,0,3.09-2.32,12.94,12.94,0,0,0,2.4-3.3Z"/><path class="cls-3" d="M121.78,117.3a9.82,9.82,0,0,1-1.84,2.53,9.7,9.7,0,0,1-2.36,1.77,9.07,9.07,0,0,1-4.33,1,9,9,0,0,1-6.65-2.82A9.66,9.66,0,0,1,104.77,109a10,10,0,0,1,4.21-4.32l1.08,2.13a7,7,0,0,0-1.78,1.33,7.12,7.12,0,0,0-1.38,1.91,7.25,7.25,0,0,0,1.38,8.15,6.72,6.72,0,0,0,5,2.11,6.8,6.8,0,0,0,3.25-.78,7.26,7.26,0,0,0,1.77-1.33,7.41,7.41,0,0,0,1.38-1.89Z"/><rect class="cls-3" x="99.82" y="154.87" width="28.28" height="226.23"/><polygon class="cls-3" points="297.77 154.87 155.91 154.87 155.91 180.16 254.77 180.16 145.51 381.09 294.25 381.09 294.25 355.6 188.16 355.6 297.77 154.87"/><path class="cls-1" d="M98.62,510.28l6.78,3.62a35.41,35.41,0,0,1-7.7,10.63,31,31,0,0,1-9.95,6.12,34.82,34.82,0,0,1-12.47,2.1q-15.4,0-24.09-10.09a34.49,34.49,0,0,1-1.32-44.17q9.31-12,25-12,16,0,25.69,12.25,6.85,8.62,6.9,21.5H50.85q.23,11,7,18.08a22.31,22.31,0,0,0,16.73,7A26.54,26.54,0,0,0,84,523.7a25.14,25.14,0,0,0,7.73-4.45A37.87,37.87,0,0,0,98.62,510.28Zm0-17a26.73,26.73,0,0,0-4.72-10.38,22.39,22.39,0,0,0-8.22-6.27,25.12,25.12,0,0,0-10.74-2.38,23.05,23.05,0,0,0-15.93,6q-4.82,4.37-7.29,13.05Z"/><path class="cls-1" d="M116.61,469.76h8.63l21.1,45.87,20.92-45.87h8.68l-28.86,63.05h-1.43Z"/><path class="cls-1" d="M241.35,510.28l6.78,3.62a35.23,35.23,0,0,1-7.7,10.63,31,31,0,0,1-9.95,6.12,34.78,34.78,0,0,1-12.47,2.1q-15.4,0-24.08-10.09a34.49,34.49,0,0,1-1.32-44.17q9.31-12,25-12,16,0,25.69,12.25,6.84,8.62,6.9,21.5H193.58q.23,11,7,18.08a22.31,22.31,0,0,0,16.73,7,26.51,26.51,0,0,0,9.37-1.7,25.1,25.1,0,0,0,7.73-4.45A37.87,37.87,0,0,0,241.35,510.28Zm0-17a26.73,26.73,0,0,0-4.72-10.38,22.47,22.47,0,0,0-8.22-6.27,25.14,25.14,0,0,0-10.75-2.38,23,23,0,0,0-15.92,6q-4.83,4.37-7.3,13.05Z"/><path class="cls-1" d="M265.26,508.79l-.12-6.73a43.22,43.22,0,0,1,.4-8.39q1.26-10.87,5.52-15.92a35.35,35.35,0,0,1,8.45-6.84A39.07,39.07,0,0,1,295.77,468a25.46,25.46,0,0,1,13.2,3.59,20.39,20.39,0,0,1,8.65,9.66q2.59,6.07,2.59,19V532.7h-8.05V502.63q0-10.92-.92-14.6-1.43-6.27-5.69-8.88T293,476.54a21.47,21.47,0,0,0-13.1,4.25,12.72,12.72,0,0,0-5.35,11.61q-1.09,4.72-1.08,17.19v23.1h-8.16Z"/><path class="cls-1" d="M353.91,530.51a29.21,29.21,0,0,1-11.27,2.24q-9.31-.52-14.72-9.66a24.26,24.26,0,0,1-3.16-12.65V445h8.16v30.46h15v7H333v26.67q-.35,9.88,6.67,15.23a12.38,12.38,0,0,0,11.72-.52C352.42,526.66,353.26,528.9,353.91,530.51Z"/><rect class="cls-3" x="121.17" y="97.22" width="4.85" height="11.25" transform="translate(-36.53 117.36) rotate(-44.94)"/><rect class="cls-3" x="126.56" y="73.65" width="1.29" height="51.16" transform="translate(-32.93 118.86) rotate(-44.94)"/><rect class="cls-3" x="130.13" y="106.18" width="4.85" height="11.25" transform="translate(-40.25 126.31) rotate(-44.94)"/><rect class="cls-3" x="112.38" y="88.43" width="4.85" height="11.25" transform="translate(-32.89 108.58) rotate(-44.94)"/><path class="cls-2" d="M132.71,129.54a21.61,21.61,0,0,1-15.89,6.69A21.3,21.3,0,0,1,101,129.54a23.81,23.81,0,0,1-3.2-4.08.31.31,0,0,0-.47-.07,17.18,17.18,0,0,1-2.93,2,.32.32,0,0,0-.15.39,22.5,22.5,0,0,0,5.26,8.32,21.3,21.3,0,0,0,15.79,6.69,21.61,21.61,0,0,0,15.89-6.69A21.84,21.84,0,0,0,137.54,124a.32.32,0,0,0-.6-.19A23.28,23.28,0,0,1,132.71,129.54Z"/><path class="cls-3" d="M137.4,123.68a26.92,26.92,0,0,1-5,6.93,26.6,26.6,0,0,1-6.46,4.86A24.88,24.88,0,0,1,114,138.33a24.57,24.57,0,0,1-18.23-7.72,26.49,26.49,0,0,1-5-29.83A27.36,27.36,0,0,1,102.32,89l3,5.84a19.13,19.13,0,0,0-4.89,3.64,19.54,19.54,0,0,0-3.77,5.23A19.87,19.87,0,0,0,100.39,126a18.43,18.43,0,0,0,13.67,5.78,18.64,18.64,0,0,0,8.9-2.15A19.89,19.89,0,0,0,127.8,126a20.32,20.32,0,0,0,3.77-5.18Z"/><rect class="cls-4" width="396.85" height="708.66"/></svg>