<svg xmlns="http://www.w3.org/2000/svg" xmlns:xlink="http://www.w3.org/1999/xlink" viewBox="0 0 396.85 708.66"><defs><style>.cls-1,.cls-3{fill:#4a255e;}.cls-1,.cls-6,.cls-9{stroke:#fff;stroke-miterlimit:10;}.cls-1,.cls-6{stroke-width:2px;}.cls-1{filter:url(#luminosity-invert-noclip);}.cls-2{isolation:isolate;}.cls-4{opacity:0.4;mix-blend-mode:multiply;}.cls-5{fill:#595a5c;}.cls-6,.cls-9{fill:none;}.cls-7{fill:#fff;}.cls-8{mask:url(#mask);}</style><filter id="luminosity-invert-noclip" x="79.35" y="71.21" width="58.74" height="65.5" filterUnits="userSpaceOnUse" color-interpolation-filters="sRGB"><feColorMatrix values="-1 0 0 0 1 0 -1 0 0 1 0 0 -1 0 1 0 0 0 1 0" result="invert"/><feFlood flood-color="#fff" result="bg"/><feBlend in="invert" in2="bg"/></filter><mask id="mask" x="79.35" y="71.21" width="58.74" height="65.5" maskUnits="userSpaceOnUse"><path class="cls-1" d="M120.43,91.7a21.51,21.51,0,0,0-17.13.94,21.78,21.78,0,0,0-11.51,12.83,22.11,22.11,0,0,0,.83,17.3,21.35,21.35,0,0,0,12.68,11.61,21.66,21.66,0,0,0,17.25-1,22,22,0,0,0,11.63-12.89A22.65,22.65,0,0,0,120.43,91.7Z"/></mask></defs><title>iztasarim</title><g class="cls-2"><g id="Layer_1" data-name="Layer 1"><path class="cls-3" d="M68,532a25.32,25.32,0,0,1-9.84,2q-8.13-.45-12.85-8.49a21.42,21.42,0,0,1-2.76-11.11V456.79h7.13v26.77h13.1v6.11h-13v23.44q-.3,8.69,5.82,13.39A10.76,10.76,0,0,0,65.76,526Q67.11,529.83,68,532Z"/><path class="cls-3" d="M94.74,475.73A27.25,27.25,0,0,1,115.82,485,28.69,28.69,0,0,1,123.55,505q.1,28.69,0,29.15h-7.48V521.6q-5.87,11-21.33,12.33-12.65,0-20.65-8.66A29.87,29.87,0,0,1,73.66,485,27.18,27.18,0,0,1,94.74,475.73Zm0,7a20.25,20.25,0,0,0-15.11,6.57,22,22,0,0,0-6.32,15.86,22.67,22.67,0,0,0,3.24,11.57q3.24,5.56,11,9.4,19.37,4.34,27.55-17.73a38,38,0,0,0-1.51-13.54,22.19,22.19,0,0,0-3.86-5.56A19.78,19.78,0,0,0,94.74,482.7Z"/><path class="cls-3" d="M159.53,483.2,155,488q-5.72-5.56-11.09-5.56a8.42,8.42,0,0,0-5.92,2.27,7.12,7.12,0,0,0-2.46,5.4,7.73,7.73,0,0,0,2.06,5.05q2,2.58,8.48,5.91,7.93,4.09,10.74,7.93a14.74,14.74,0,0,1,2.76,8.74,15.61,15.61,0,0,1-4.74,11.49A16.14,16.14,0,0,1,143,533.92a21.11,21.11,0,0,1-9.11-2,19.05,19.05,0,0,1-7.15-5.73l4.47-5.1q5.42,6.16,11.49,6.16a10.25,10.25,0,0,0,7.2-2.75,8.51,8.51,0,0,0,3-6.44,8.33,8.33,0,0,0-2-5.45q-2-2.37-8.88-6-7.48-3.79-10.14-7.63a14.26,14.26,0,0,1-2.71-8.59,14,14,0,0,1,4.29-10.48,14.83,14.83,0,0,1,10.76-4.17Q151.8,475.73,159.53,483.2Z"/><path class="cls-3" d="M190.67,475.73A27.24,27.24,0,0,1,211.75,485,28.69,28.69,0,0,1,219.48,505q.1,28.69,0,29.15H212V521.6q-5.87,11-21.33,12.33-12.65,0-20.65-8.66a29.87,29.87,0,0,1-.43-40.24A27.18,27.18,0,0,1,190.67,475.73Zm0,7a20.25,20.25,0,0,0-15.11,6.57,22,22,0,0,0-6.32,15.86,22.67,22.67,0,0,0,3.24,11.57q3.24,5.56,11,9.4,19.37,4.34,27.55-17.73a38,38,0,0,0-1.51-13.54,22.25,22.25,0,0,0-3.86-5.56A19.78,19.78,0,0,0,190.67,482.7Z"/><path class="cls-3" d="M226.46,508.51v-6.67a30,30,0,0,1,2.31-8.13Q232.28,485,238.2,481t9.84-4a12.52,12.52,0,0,1,6.22,1.92l-3.66,6q-4.67-1.72-9.26,2.78a24.51,24.51,0,0,0-6.35,9.8q-1.3,4.7-1.3,17.63v18.74h-7.23Z"/><path class="cls-3" d="M255.44,477.14h7.13v55.41h-7.13Z"/><path class="cls-3" d="M272,512.4v-8.84q.9-11.31,4.72-16.57a23.19,23.19,0,0,1,8.28-7.63q3.36-2.17,9.59-2.32a23.42,23.42,0,0,1,8.13,1.52,15.58,15.58,0,0,1,6.37,4,30.77,30.77,0,0,1,4.57,7.58,25.84,25.84,0,0,1,5.27-7.58,27.17,27.17,0,0,1,5.07-3.28q2.11-1.36,9.79-2.27a22.61,22.61,0,0,1,11,2.88,15.94,15.94,0,0,1,7.4,8.11q2.13,5.23,2.13,15.58v30.26H347.1V503.61q0-8.89-1.25-12.22a11,11,0,0,0-4.32-5.38,13,13,0,0,0-7.38-2q-8.13.56-13.9,7.93Q318,495,316.84,505.78v28.09h-7.08V505.48q0-10-2.21-13.61a19,19,0,0,0-5.27-5.76,13,13,0,0,0-7.63-2.15,14.18,14.18,0,0,0-8.46,2.53,16.47,16.47,0,0,0-5.54,7.55q-2,5-1.61,16.34v23.49h-7Z"/><polygon class="cls-3" points="325.98 41.75 297.64 41.75 269.29 41.75 240.94 41.75 212.6 41.75 184.25 41.75 155.91 41.75 127.56 41.75 99.21 41.75 70.87 41.75 42.52 41.75 42.52 70.09 42.52 98.44 42.52 126.79 42.52 155.13 42.52 183.48 42.52 211.83 42.52 240.17 42.52 268.52 42.52 296.87 42.52 325.21 42.52 353.56 42.52 381.91 42.52 410.25 42.52 438.6 70.87 438.6 99.21 438.6 127.56 438.6 155.91 438.6 184.25 438.6 212.6 438.6 240.94 438.6 269.29 438.6 297.64 438.6 325.98 438.6 354.33 438.6 354.33 410.25 354.33 381.91 354.33 353.56 354.33 325.21 354.33 296.87 354.33 268.52 354.33 240.17 354.33 211.83 354.33 183.48 354.33 155.13 354.33 126.79 354.33 98.44 354.33 70.09 354.33 41.75 325.98 41.75"/><g class="cls-4"><rect class="cls-5" x="104.88" y="160.8" width="28.35" height="226.77"/><polygon class="cls-5" points="303.31 160.8 161.1 160.8 161.1 186.16 260.2 186.16 150.68 387.57 299.77 387.57 299.77 362.01 193.43 362.01 303.31 160.8"/><path class="cls-5" d="M134.68,103.2a23.41,23.41,0,0,1-39.09,24.9,23.41,23.41,0,1,0,39.09-24.9Z"/></g><path class="cls-6" d="M113.29,90a21.51,21.51,0,0,0-15.83,6.61,21.78,21.78,0,0,0-6.56,15.93,22.11,22.11,0,0,0,6.56,16,21.35,21.35,0,0,0,15.83,6.7,21.66,21.66,0,0,0,15.93-6.7,22,22,0,0,0,6.66-16A22.65,22.65,0,0,0,113.29,90Z"/><rect class="cls-7" x="99.21" y="155.13" width="28.35" height="226.77"/><polygon class="cls-7" points="297.64 155.13 155.43 155.13 155.43 180.49 254.53 180.49 145.01 381.91 294.1 381.91 294.1 356.35 187.76 356.35 297.64 155.13"/><g class="cls-8"><path class="cls-7" d="M123.2,91.95l-1.23-.1a.4.4,0,0,0-.43.36l-2.59,32.87a.4.4,0,0,0,.36.43l.45,0-.24,3.05a.1.1,0,0,0,.09.11h.12a.1.1,0,0,0,.11-.09l.24-3.05.45,0a.4.4,0,0,0,.43-.36l2.59-32.87A.4.4,0,0,0,123.2,91.95Z"/><path class="cls-7" d="M97.84,121l.1.07a.1.1,0,0,0,.14,0l1.74-2.52.37.26a.4.4,0,0,0,.55-.1l18.68-27.17a.4.4,0,0,0-.1-.55l-1-.7a.4.4,0,0,0-.55.1L99.07,117.49a.4.4,0,0,0,.1.55l.37.26-1.74,2.52A.1.1,0,0,0,97.84,121Z"/><path class="cls-7" d="M120.77,90.74a4.9,4.9,0,0,0,3.87-9L126,77.94l.45.16a.87.87,0,0,0,1.11-.53l1.58-4.45A.87.87,0,0,0,128.6,72l-2.13-.75a.87.87,0,0,0-1.11.53l-1.58,4.45a.87.87,0,0,0,.53,1.11l.45.16-1.35,3.82a4.9,4.9,0,0,0-2.64,9.41ZM123.86,82a4.33,4.33,0,1,1-5.53,2.64A4.34,4.34,0,0,1,123.86,82Z"/><ellipse class="cls-7" cx="108.72" cy="125.04" rx="0.37" ry="31.16" transform="translate(-45.45 185.75) rotate(-70.49)"/><circle class="cls-7" cx="122.41" cy="86.11" r="1.79" transform="translate(0.36 172.73) rotate(-70.49)"/></g><rect class="cls-9" width="396.85" height="708.66"/></g></g></svg>