<svg xmlns="http://www.w3.org/2000/svg" xmlns:xlink="http://www.w3.org/1999/xlink" viewBox="0 0 396.85 708.66"><defs><style>.cls-1{isolation:isolate;}.cls-2{fill:#cc2229;}.cls-3{opacity:0.4;mix-blend-mode:multiply;}.cls-4{fill:#595a5c;}.cls-5{fill:url(#linear-gradient);}.cls-6{fill:#fff;}.cls-7{fill:none;stroke:#fff;stroke-miterlimit:10;}</style><linearGradient id="linear-gradient" x1="132.78" y1="122.08" x2="143.53" y2="130.83" gradientUnits="userSpaceOnUse"><stop offset="0"/><stop offset="0.08" stop-color="#070606" stop-opacity="0.83"/><stop offset="1" stop-color="#272525" stop-opacity="0"/></linearGradient></defs><title>izteknik</title><g class="cls-1"><g id="Layer_1" data-name="Layer 1"><path class="cls-2" d="M67.92,530.57a25.31,25.31,0,0,1-9.82,2q-8.12-.45-12.83-8.47A21.38,21.38,0,0,1,42.52,513V455.54h7.11v26.73H62.71v6.1h-13v23.4q-.3,8.67,5.81,13.36a10.74,10.74,0,0,0,10.22-.45Q67.07,528.45,67.92,530.57Z"/><path class="cls-2" d="M133,512.82l5.91,3.18a31.06,31.06,0,0,1-6.71,9.33,27.07,27.07,0,0,1-8.67,5.37,30.23,30.23,0,0,1-10.87,1.84q-13.43,0-21-8.85a30.41,30.41,0,0,1-1.15-38.75q8.12-10.49,21.79-10.49,14,0,22.39,10.74,6,7.56,6,18.86H91.33q.2,9.68,6.11,15.86A19.38,19.38,0,0,0,112,526.08a23,23,0,0,0,8.17-1.49,21.84,21.84,0,0,0,6.74-3.91A33.15,33.15,0,0,0,133,512.82Zm0-14.88a23.53,23.53,0,0,0-4.11-9.1,19.59,19.59,0,0,0-7.16-5.5,21.8,21.8,0,0,0-9.37-2.09,20,20,0,0,0-13.88,5.24q-4.21,3.83-6.36,11.45Z"/><path class="cls-2" d="M156.82,455.79h7.11v43.67l25.4-22.29h10.42l-23,21,24.75,34.29h-10l-21.64-29.75-5.91,4.89v24.86h-7.11Z"/><path class="cls-2" d="M217.79,511.51l-.1-5.9a37.82,37.82,0,0,1,.35-7.36q1.1-9.53,4.81-14a31,31,0,0,1,7.36-6,33.91,33.91,0,0,1,14.18-2.52,22.06,22.06,0,0,1,11.5,3.15,17.82,17.82,0,0,1,7.54,8.47q2.25,5.32,2.25,16.66v28.44h-7V506.11q0-9.58-.8-12.81-1.25-5.5-5-7.79t-11-2.29A18.63,18.63,0,0,0,230.51,487a11.19,11.19,0,0,0-4.66,10.19q-1,4.14-1,15.08v20.27h-7.11Z"/><path class="cls-2" d="M287.64,454.43a5.87,5.87,0,0,1,0,11.75,5.54,5.54,0,0,1-4.11-1.74,5.74,5.74,0,0,1-1.7-4.16,5.65,5.65,0,0,1,1.7-4.13A5.58,5.58,0,0,1,287.64,454.43Zm-3.51,22.74h7.06v55.32h-7.06Z"/><path class="cls-2" d="M309.64,455.79h7.11v43.67l25.4-22.29h10.42l-23,21,24.75,34.29h-10l-21.64-29.75-5.91,4.89v24.86h-7.11Z"/><polygon class="cls-2" points="325.98 41.75 297.64 41.75 269.29 41.75 240.94 41.75 212.6 41.75 184.25 41.75 155.91 41.75 127.56 41.75 99.21 41.75 70.87 41.75 42.52 41.75 42.52 70.09 42.52 98.44 42.52 126.79 42.52 155.13 42.52 183.48 42.52 211.83 42.52 240.17 42.52 268.52 42.52 296.87 42.52 325.21 42.52 353.56 42.52 381.91 42.52 410.25 42.52 438.6 70.87 438.6 99.21 438.6 127.56 438.6 155.91 438.6 184.25 438.6 212.6 438.6 240.94 438.6 269.29 438.6 297.64 438.6 325.98 438.6 354.33 438.6 354.33 410.25 354.33 381.91 354.33 353.56 354.33 325.21 354.33 296.87 354.33 268.52 354.33 240.17 354.33 211.83 354.33 183.48 354.33 155.13 354.33 126.79 354.33 98.44 354.33 70.09 354.33 41.75 325.98 41.75"/><g class="cls-3"><rect class="cls-4" x="104.88" y="160.8" width="28.35" height="226.77"/><polygon class="cls-4" points="303.31 160.8 161.1 160.8 161.1 186.16 260.2 186.16 150.68 387.57 299.77 387.57 299.77 362.01 193.43 362.01 303.31 160.8"/><polygon class="cls-5" points="104.49 134.67 127.56 153.58 160.43 108.83 142.2 94.2 137.55 99.71 131.68 100.08 125.17 110.58 126.42 112.46 129.71 120.08 127.56 130.33 115.8 135.33 104.49 134.67"/></g><path class="cls-6" d="M131.19,91.2a6.3,6.3,0,0,0-1.4,6.26L124.51,103,121,106.78l-6.47,6.82a6.25,6.25,0,0,0-7.37,8.53.35.35,0,0,0,.56.11l3.41-3.59a1,1,0,0,1,1.43,0l1.81,1.73a1,1,0,0,1,.07,1.43l-3.4,3.59a.35.35,0,0,0,.13.56,6.34,6.34,0,0,0,6.73-1.56,6.27,6.27,0,0,0,1.39-6.25l6.51-6.87,3.55-3.75,5.25-5.53a6.24,6.24,0,0,0,7.38-8.52.34.34,0,0,0-.56-.11l-3.25,3.42a1,1,0,0,1-1.43,0l-1.81-1.72a1,1,0,0,1-.07-1.44l3.24-3.42a.34.34,0,0,0-.13-.55A6.32,6.32,0,0,0,131.19,91.2Z"/><path class="cls-6" d="M126.34,112.23a13.66,13.66,0,0,1-21.63,16.2l-.19-.2a13.64,13.64,0,0,1,.18-19.16l.27-.28a13.68,13.68,0,0,1,14.83-2.57h0l3.7-3.79A18.49,18.49,0,0,0,119,100.6L119,97a.78.78,0,0,0-.77-.79l-7.37-.07a.78.78,0,0,0-.79.77l0,3.63a18.69,18.69,0,0,0-5.25,2.11L102.24,100a.77.77,0,0,0-1.1,0l-5.27,5.16a.8.8,0,0,0,0,1.11l2.55,2.59a18.33,18.33,0,0,0-2.21,5.2l-3.64,0a.78.78,0,0,0-.79.77l-.07,7.38a.78.78,0,0,0,.77.79l3.64,0a18.33,18.33,0,0,0,2.11,5.24l-2.59,2.55a.8.8,0,0,0,0,1.11l5.17,5.26a.77.77,0,0,0,1.1,0l2.59-2.54a18.69,18.69,0,0,0,5.21,2.21l0,3.63a.78.78,0,0,0,.77.79l7.37.07a.78.78,0,0,0,.79-.77l0-3.63a18.13,18.13,0,0,0,5.25-2.12h0l2.54,2.59a.77.77,0,0,0,1.1,0l5.27-5.16a.8.8,0,0,0,0-1.11l-2.55-2.59a18.62,18.62,0,0,0,2.21-5.2l3.64,0a.78.78,0,0,0,.79-.77l.07-7.38a.78.78,0,0,0-.77-.79l-3.64,0A18.18,18.18,0,0,0,130,108.5Z"/><rect class="cls-6" x="99.21" y="155.13" width="28.35" height="226.77"/><polygon class="cls-6" points="297.64 155.13 155.43 155.13 155.43 180.49 254.53 180.49 145.01 381.91 294.1 381.91 294.1 356.35 187.76 356.35 297.64 155.13"/><rect class="cls-7" width="396.85" height="708.66"/></g></g></svg>