<svg xmlns="http://www.w3.org/2000/svg" viewBox="0 0 396.85 708.66"><defs><style>.cls-1{isolation:isolate;}.cls-2{fill:#948479;}.cls-3{opacity:0.4;mix-blend-mode:multiply;}.cls-4{fill:#595a5c;}.cls-5{fill:#fff;}.cls-6{fill:none;stroke:#fff;stroke-miterlimit:10;}</style></defs><title>iztransfer</title><g class="cls-1"><g id="Layer_1" data-name="Layer 1"><path class="cls-2" d="M67.44,530.81a24.84,24.84,0,0,1-9.63,1.93q-8-.45-12.58-8.31a21,21,0,0,1-2.7-10.88V457.19h7v26.22H62.33v6H49.55v23q-.29,8.51,5.7,13.11a10.54,10.54,0,0,0,10-.45Q66.61,528.73,67.44,530.81Z"/><path class="cls-2" d="M69.94,507.85v-6.53a29.36,29.36,0,0,1,2.26-8q3.44-8.51,9.24-12.47t9.63-4a12.25,12.25,0,0,1,6.09,1.88l-3.59,5.84Q89,483,84.51,487.37A24,24,0,0,0,78.3,497Q77,501.57,77,514.23v18.35H69.94Z"/><path class="cls-2" d="M120.17,475.74a26.69,26.69,0,0,1,20.64,9.05,28.1,28.1,0,0,1,7.57,19.64q.1,28.1,0,28.55h-7.32V520.67q-5.75,10.79-20.89,12.07-12.39,0-20.23-8.49a29.26,29.26,0,0,1-.42-39.41A26.62,26.62,0,0,1,120.17,475.74Zm0,6.83A19.83,19.83,0,0,0,105.37,489a21.58,21.58,0,0,0-6.19,15.54,22.19,22.19,0,0,0,3.17,11.33q3.17,5.44,10.74,9.2,19,4.25,27-17.37a37.21,37.21,0,0,0-1.47-13.26,21.75,21.75,0,0,0-3.79-5.44A19.36,19.36,0,0,0,120.17,482.57Z"/><path class="cls-2" d="M156.35,512.11l-.1-5.79a37.19,37.19,0,0,1,.34-7.22q1.08-9.35,4.72-13.71a30.35,30.35,0,0,1,7.23-5.89A33.27,33.27,0,0,1,182.45,477a21.64,21.64,0,0,1,11.28,3.09,17.48,17.48,0,0,1,7.4,8.31q2.21,5.22,2.21,16.35v27.9h-6.88V506.81q0-9.4-.79-12.57-1.23-5.39-4.87-7.64T180,484.35A18.27,18.27,0,0,0,168.84,488a11,11,0,0,0-4.57,10q-.93,4.06-.93,14.79v19.89h-7Z"/><path class="cls-2" d="M239.38,483.07,235,487.72q-5.6-5.44-10.86-5.44a8.24,8.24,0,0,0-5.8,2.23,7,7,0,0,0-2.41,5.29,7.57,7.57,0,0,0,2,4.95q2,2.52,8.31,5.79,7.77,4,10.52,7.77a14.44,14.44,0,0,1,2.7,8.56,15.29,15.29,0,0,1-4.64,11.26,15.81,15.81,0,0,1-11.62,4.63,20.69,20.69,0,0,1-8.92-2,18.65,18.65,0,0,1-7-5.62l4.37-5q5.31,6,11.26,6a10,10,0,0,0,7.05-2.7,8.33,8.33,0,0,0,2.92-6.31,8.16,8.16,0,0,0-1.92-5.34q-1.92-2.33-8.7-5.84-7.32-3.71-9.93-7.47a14,14,0,0,1-2.65-8.41,13.71,13.71,0,0,1,4.2-10.27,14.52,14.52,0,0,1,10.54-4.08Q231.81,475.74,239.38,483.07Z"/><path class="cls-2" d="M267.05,465a10.54,10.54,0,0,0-10-.44q-4.42,2.37-5.7,13.11v5.44H264.1v6H251.27v43.74h-7V476.44a21.86,21.86,0,0,1,2.7-10.89q3.93-8.21,12.58-8.51,4.42-1,9.63,2.13Q268.38,461.25,267.05,465Z"/><path class="cls-2" d="M315.11,513.39l5.8,3.12a30.48,30.48,0,0,1-6.59,9.15,26.56,26.56,0,0,1-8.5,5.27,29.68,29.68,0,0,1-10.67,1.81q-13.17,0-20.6-8.68a29.84,29.84,0,0,1-1.13-38q8-10.29,21.38-10.29,13.71,0,22,10.54,5.85,7.42,5.9,18.5H274.26q.2,9.5,6,15.56a19,19,0,0,0,14.3,6.06,22.6,22.6,0,0,0,8-1.46,21.46,21.46,0,0,0,6.61-3.83A32.54,32.54,0,0,0,315.11,513.39Zm0-14.6a23.09,23.09,0,0,0-4-8.93,19.22,19.22,0,0,0-7-5.39,21.39,21.39,0,0,0-9.19-2.05,19.63,19.63,0,0,0-13.62,5.15q-4.13,3.76-6.24,11.23Z"/><path class="cls-2" d="M327.1,507.85v-6.53a29.36,29.36,0,0,1,2.26-8q3.44-8.51,9.24-12.47t9.63-4a12.25,12.25,0,0,1,6.09,1.88l-3.59,5.84q-4.57-1.68-9.07,2.72a24,24,0,0,0-6.22,9.6q-1.28,4.6-1.28,17.27v18.35H327.1Z"/><polygon class="cls-2" points="325.98 41.75 297.64 41.75 269.29 41.75 240.94 41.75 212.6 41.75 184.25 41.75 155.91 41.75 127.56 41.75 99.21 41.75 70.87 41.75 42.52 41.75 42.52 70.09 42.52 98.44 42.52 126.79 42.52 155.13 42.52 183.48 42.52 211.83 42.52 240.17 42.52 268.52 42.52 296.87 42.52 325.21 42.52 353.56 42.52 381.91 42.52 410.25 42.52 438.6 70.87 438.6 99.21 438.6 127.56 438.6 155.91 438.6 184.25 438.6 212.6 438.6 240.94 438.6 269.29 438.6 297.64 438.6 325.98 438.6 354.33 438.6 354.33 410.25 354.33 381.91 354.33 353.56 354.33 325.21 354.33 296.87 354.33 268.52 354.33 240.17 354.33 211.83 354.33 183.48 354.33 155.13 354.33 126.79 354.33 98.44 354.33 70.09 354.33 41.75 325.98 41.75"/><g class="cls-3"><path class="cls-4" d="M134.89,102.25a24.45,24.45,0,0,0-3.41-2.82A21.53,21.53,0,0,1,135,111.59a22,22,0,0,1-6.66,16,21.66,21.66,0,0,1-15.93,6.7,21.18,21.18,0,0,1-12.23-3.68,24.44,24.44,0,0,0,2.9,3.57,21.35,21.35,0,0,0,15.83,6.7,21.66,21.66,0,0,0,15.93-6.7,22,22,0,0,0,6.66-16A21.63,21.63,0,0,0,134.89,102.25Z"/><rect class="cls-4" x="104.88" y="160.8" width="28.35" height="226.77"/><polygon class="cls-4" points="303.31 160.8 161.1 160.8 161.1 186.16 260.2 186.16 150.68 387.57 299.77 387.57 299.77 362.01 193.43 362.01 303.31 160.8"/></g><path class="cls-5" d="M103.85,111.69h-1c-.6,0-.71.14-.6.75h2.25C104.54,111.84,104.41,111.69,103.85,111.69Z"/><path class="cls-5" d="M124.59,112.64l-2.76.55a1.39,1.39,0,0,0-1.32,1.39c0,.18,0,.36-.05.54a.45.45,0,0,0,.37.53,1.59,1.59,0,0,0,.54.07c1-.13,2-.25,3.05-.43.59-.11.78-.44.79-1.05q0-.22,0-.44h0c0-.22,0-.43,0-.65C125.19,112.69,125,112.55,124.59,112.64Z"/><path class="cls-5" d="M129.22,96.58A21.83,21.83,0,0,0,113.29,90a21.51,21.51,0,0,0-15.83,6.61,21.78,21.78,0,0,0-6.56,15.93,22.11,22.11,0,0,0,6.56,16,21.35,21.35,0,0,0,15.83,6.7,21.66,21.66,0,0,0,15.93-6.7,22,22,0,0,0,6.66-16A21.63,21.63,0,0,0,129.22,96.58ZM96.66,123a11.92,11.92,0,0,1-1.5,0,1.29,1.29,0,0,1-1.06-1.28q0-3.84,0-7.67a1.31,1.31,0,0,1,1.17-1.3,12.82,12.82,0,0,1,1.39,0Zm9.32,0h-8v-10.3h2c0-.15,0-.26,0-.38a1.27,1.27,0,0,1,1.35-1.33h1.37a1.31,1.31,0,0,1,1.48,1.44c0,.07,0,.15,0,.27H106Zm4.08-1.34A1.34,1.34,0,0,1,108.8,123c-.45,0-.91,0-1.39,0v-10.3a13.32,13.32,0,0,1,1.42,0,1.36,1.36,0,0,1,1.22,1.38Q110.06,117.86,110.05,121.64Zm21.57-9.6a11.54,11.54,0,0,1-1.41.09c-.36,0-.71,0-1.14,0,0,.17,0,.31,0,.46,0,2.38,0,4.76,0,7.14a5,5,0,0,1-.32,1.78,2.26,2.26,0,0,1-2.27,1.5h-1.11a2.55,2.55,0,0,1-2.69-2.52c0-.18,0-.35,0-.61h-.52c-3.5,0-7,0-10.51,0-.38,0-.5-.08-.49-.48,0-1.74,0-3.49,0-5.23a2.43,2.43,0,0,0-2.62-2.58c-1,0-2,0-3,0a.54.54,0,0,1-.36-.22c-.18-.24-.31-.51-.48-.8.66-.05,1.3-.12,1.94-.15,3.1-.14,6.21-.36,9.31-.36,2.62,0,5.24.25,7.85.4l1.94.13c.91.07,1.2-.27.88-1.13-.44-1.17-.93-2.31-1.37-3.47a6.42,6.42,0,0,0-1.28-2.28,4.3,4.3,0,0,0-3.28-1.43c-3.83,0-7.67,0-11.5,0a4.07,4.07,0,0,0-4.22,2.91c-.52,1.35-1,2.71-1.52,4.07a6.4,6.4,0,0,0-.17.65c-.79,0-1.58,0-2.36,0A2.2,2.2,0,0,0,99,111.27a.46.46,0,0,1-.54.32,2.66,2.66,0,0,0-.34,0c-.55,0-.66-.07-.7-.64a8.7,8.7,0,0,1,0-1.41c.05-.6.42-.9,1.11-.91q1.36,0,2.71,0a.39.39,0,0,0,.44-.3c.52-1.41,1.08-2.8,1.59-4.21a5.09,5.09,0,0,1,4.85-3.41c.92,0,1.83,0,2.75,0,.28,0,.44-.07.52-.36.13-.44.3-.86.45-1.29a1.17,1.17,0,0,1,1.18-.85h4.09a1.14,1.14,0,0,1,1.16.82c.17.45.35.9.49,1.36a.38.38,0,0,0,.44.31c.79,0,1.58,0,2.37,0a5.22,5.22,0,0,1,4.63,2.49,10.92,10.92,0,0,1,.92,1.87c.48,1.08.94,2.17,1.39,3.26a.41.41,0,0,0,.45.3q1.26,0,2.52,0c.89,0,1.21.35,1.22,1.24,0,.32,0,.64,0,1A1.16,1.16,0,0,1,131.62,112Z"/><rect class="cls-5" x="99.21" y="155.13" width="28.35" height="226.77"/><polygon class="cls-5" points="297.64 155.13 155.43 155.13 155.43 180.49 254.53 180.49 145.01 381.91 294.1 381.91 294.1 356.35 187.76 356.35 297.64 155.13"/><rect class="cls-6" width="396.85" height="708.66"/></g></g></svg>