<svg xmlns="http://www.w3.org/2000/svg" xmlns:xlink="http://www.w3.org/1999/xlink" viewBox="0 0 396.85 708.66"><defs><style>.cls-1{isolation:isolate;}.cls-2{fill:#5ba69d;}.cls-3{opacity:0.4;mix-blend-mode:multiply;}.cls-4{fill:#595a5c;}.cls-5{fill:url(#linear-gradient);}.cls-6{fill:url(#linear-gradient-2);}.cls-7{fill:url(#linear-gradient-3);}.cls-8{fill:#fff;}.cls-9{fill:none;stroke:#fff;stroke-miterlimit:10;}</style><linearGradient id="linear-gradient" x1="117" y1="85.4" x2="124.93" y2="85.4" gradientUnits="userSpaceOnUse"><stop offset="0"/><stop offset="0.04" stop-color="#040303" stop-opacity="0.91"/><stop offset="1" stop-color="#272525" stop-opacity="0"/></linearGradient><linearGradient id="linear-gradient-2" x1="133.02" y1="88.86" x2="143.84" y2="88.86" gradientUnits="userSpaceOnUse"><stop offset="0"/><stop offset="1" stop-color="#272525" stop-opacity="0"/></linearGradient><linearGradient id="linear-gradient-3" x1="144.41" y1="102.86" x2="157.08" y2="102.86" gradientUnits="userSpaceOnUse"><stop offset="0"/><stop offset="0.05" stop-color="#040404" stop-opacity="0.89"/><stop offset="1" stop-color="#272525" stop-opacity="0"/></linearGradient></defs><title>izvip</title><g class="cls-1"><g id="Layer_1" data-name="Layer 1"><polygon class="cls-2" points="57.1 520.21 45.5 486.16 40.76 486.16 56.72 532.97 57.51 532.97 73.37 486.16 68.6 486.16 57.1 520.21"/><path class="cls-2" d="M77.5,466.83a3.16,3.16,0,0,0-2.59,1.45,5.72,5.72,0,0,0-1.07,3.5,5.81,5.81,0,0,0,1.07,3.52,3.14,3.14,0,0,0,2.59,1.47,3.18,3.18,0,0,0,2.61-1.47,5.75,5.75,0,0,0,1.09-3.52,5.66,5.66,0,0,0-1.09-3.5A3.2,3.2,0,0,0,77.5,466.83Z"/><rect class="cls-2" x="75.29" y="486.08" width="4.46" height="46.81"/><path class="cls-2" d="M115.74,491.11q-5.25-7.17-12.64-7.17a15.35,15.35,0,0,0-7.95,2.2,21.75,21.75,0,0,0-6.84,6.93,40,40,0,0,0-3.41,12.59V550h4.42V523.88a21.2,21.2,0,0,0,6.29,6.93,13.59,13.59,0,0,0,7.62,2.28q7.33,0,12.55-7.21T121,508.39A28.46,28.46,0,0,0,115.74,491.11Zm-1.12,27a17,17,0,0,1-5.06,7,10.78,10.78,0,0,1-6.78,2.5,11.32,11.32,0,0,1-7-2.5,15.92,15.92,0,0,1-5.06-6.78A24.89,24.89,0,0,1,89,508.78q0-8.15,4-13.61t9.73-5.46a10.86,10.86,0,0,1,6.91,2.5,17.06,17.06,0,0,1,5,6.93,24.21,24.21,0,0,1,1.86,9.47A24.59,24.59,0,0,1,114.61,518.1Z"/><path class="cls-2" d="M150.8,505.15q-4.08-2.82-5.34-5a7.86,7.86,0,0,1-1.3-4.27,7.05,7.05,0,0,1,1.55-4.57,4.65,4.65,0,0,1,3.73-1.92q3.38,0,7,4.69l2.84-4q-4.87-6.31-9.64-6.32a8.23,8.23,0,0,0-6.78,3.52,14.12,14.12,0,0,0-2.7,8.85,15,15,0,0,0,1.71,7.25q1.68,3.24,6.38,6.44,4.36,3,5.59,5a8.63,8.63,0,0,1,1.23,4.61,8.39,8.39,0,0,1-1.88,5.44,5.66,5.66,0,0,1-4.54,2.33q-3.82,0-7.24-5.21l-2.81,4.31a13.45,13.45,0,0,0,4.5,4.84,10.58,10.58,0,0,0,5.74,1.73,9,9,0,0,0,7.47-4,15.74,15.74,0,0,0,3-9.71,15.55,15.55,0,0,0-1.74-7.38Q155.79,508.61,150.8,505.15Z"/><path class="cls-2" d="M192.78,492.86q-5.31-9.09-14.13-9.09-8.63,0-13.75,8.88a32.75,32.75,0,0,0,.73,32.79q4.77,7.49,13.24,7.49a14.79,14.79,0,0,0,6.86-1.56,17.22,17.22,0,0,0,5.47-4.54,27.43,27.43,0,0,0,4.23-7.89l-3.73-2.69a28.55,28.55,0,0,1-3.81,6.66,13.6,13.6,0,0,1-4.25,3.31,11.31,11.31,0,0,1-5.15,1.26q-5.47,0-9.2-5.23t-3.86-13.42h31.13Q196.54,499.26,192.78,492.86Zm-26.87,10.8q1.36-6.44,4-9.69a10.81,10.81,0,0,1,14.66-2.67,13.63,13.63,0,0,1,4.52,4.65,23.57,23.57,0,0,1,2.59,7.7Z"/><path class="cls-2" d="M216.56,486.16A6.24,6.24,0,0,0,213,484.8q-2.46,0-6.19,3.41T200.88,499a32.21,32.21,0,0,0-1.45,6.87v27H204V517q0-10.92.82-14.89a22.41,22.41,0,0,1,4-8.28q2.89-3.8,5.83-2.35l2-4.39-.31-.9Z"/><path class="cls-2" d="M232.67,520.21l-11.6-34.05h-4.51c.12.09.25.16.37.26l-.29.64L232.29,533h.79l15.87-46.81h-4.77Z"/><rect class="cls-2" x="250.86" y="486.08" width="4.46" height="46.81"/><path class="cls-2" d="M253.07,466.83a3.15,3.15,0,0,0-2.59,1.45,5.71,5.71,0,0,0-1.08,3.5,5.8,5.8,0,0,0,1.08,3.52,3.14,3.14,0,0,0,2.59,1.47,3.18,3.18,0,0,0,2.61-1.47,5.75,5.75,0,0,0,1.09-3.52,5.66,5.66,0,0,0-1.09-3.5A3.19,3.19,0,0,0,253.07,466.83Z"/><path class="cls-2" d="M278.27,489.4q7.93,0,12.52,8.28l3.54-3a19.14,19.14,0,0,0-3.79-5.82,17.28,17.28,0,0,0-5.45-3.69A16.51,16.51,0,0,0,268.55,487a21.91,21.91,0,0,0-7,9.09A31.26,31.26,0,0,0,259,508.78a27.21,27.21,0,0,0,5.42,17.11q5.42,7,13.61,7a17,17,0,0,0,9.56-2.75,19.35,19.35,0,0,0,6.68-7.79l-3.54-3.11q-4.84,8.19-12.52,8.19a12.35,12.35,0,0,1-7.52-2.47,16.46,16.46,0,0,1-5.28-7,24.49,24.49,0,0,1-1.93-9.67,21.49,21.49,0,0,1,4.19-13.4A12.75,12.75,0,0,1,278.27,489.4Z"/><path class="cls-2" d="M327.46,492.86q-5.31-9.09-14.13-9.09-8.63,0-13.75,8.88a32.75,32.75,0,0,0,.73,32.79q4.77,7.49,13.24,7.49a14.79,14.79,0,0,0,6.86-1.56,17.21,17.21,0,0,0,5.47-4.54,27.43,27.43,0,0,0,4.24-7.89l-3.73-2.69a28.57,28.57,0,0,1-3.81,6.66,13.59,13.59,0,0,1-4.25,3.31,11.31,11.31,0,0,1-5.15,1.26q-5.47,0-9.2-5.23t-3.86-13.42h31.13Q331.22,499.26,327.46,492.86Zm-26.87,10.8q1.36-6.44,4-9.69a10.81,10.81,0,0,1,14.66-2.67A13.63,13.63,0,0,1,323.8,496a23.59,23.59,0,0,1,2.59,7.7Z"/><path class="cls-2" d="M350.83,511.85q-1.77-3.24-6.76-6.7-4.08-2.82-5.34-5a7.86,7.86,0,0,1-1.3-4.27,7.05,7.05,0,0,1,1.55-4.57,4.65,4.65,0,0,1,3.73-1.92q3.38,0,7,4.69l2.84-4q-4.87-6.31-9.64-6.32a8.23,8.23,0,0,0-6.78,3.52,14.12,14.12,0,0,0-2.7,8.85,15,15,0,0,0,1.71,7.25q1.68,3.24,6.38,6.44,4.36,3,5.59,5a8.63,8.63,0,0,1,1.23,4.61,8.4,8.4,0,0,1-1.88,5.44,5.66,5.66,0,0,1-4.54,2.33q-3.82,0-7.24-5.21l-2.81,4.31a13.45,13.45,0,0,0,4.5,4.84,10.58,10.58,0,0,0,5.74,1.73,9,9,0,0,0,7.47-4,15.74,15.74,0,0,0,3-9.71A15.54,15.54,0,0,0,350.83,511.85Z"/><polygon class="cls-2" points="325.98 41.75 297.64 41.75 269.29 41.75 240.94 41.75 212.6 41.75 184.25 41.75 155.91 41.75 127.56 41.75 99.21 41.75 70.87 41.75 42.52 41.75 42.52 70.09 42.52 98.44 42.52 126.79 42.52 155.13 42.52 183.48 42.52 211.83 42.52 240.17 42.52 268.52 42.52 296.87 42.52 325.21 42.52 353.56 42.52 381.91 42.52 410.25 42.52 438.6 70.87 438.6 99.21 438.6 127.56 438.6 155.91 438.6 184.25 438.6 212.6 438.6 240.94 438.6 269.29 438.6 297.64 438.6 325.98 438.6 354.33 438.6 354.33 410.25 354.33 381.91 354.33 353.56 354.33 325.21 354.33 296.87 354.33 268.52 354.33 240.17 354.33 211.83 354.33 183.48 354.33 155.13 354.33 126.79 354.33 98.44 354.33 70.09 354.33 41.75 325.98 41.75"/><g class="cls-3"><path class="cls-4" d="M135.68,109.59a14.27,14.27,0,0,1,.19,3.13,21.49,21.49,0,0,1-6.66,15.82,22.09,22.09,0,0,1-31.55.16c-.48-.49-.92-1-1.34-1.5a21.87,21.87,0,0,1-2.74-3.82A22.16,22.16,0,0,0,131.1,134a22,22,0,0,0,6.66-16A17.89,17.89,0,0,0,135.68,109.59Z"/><rect class="cls-4" x="104.88" y="160.8" width="28.35" height="226.77"/><polygon class="cls-4" points="303.31 160.8 161.1 160.8 161.1 186.16 260.2 186.16 150.68 387.57 299.77 387.57 299.77 362.01 193.43 362.01 303.31 160.8"/><polygon class="cls-5" points="117 87.71 123.09 89.98 124.92 83.08 119.24 80.83 117 87.71"/><polygon class="cls-6" points="133.02 92.71 140.68 95.56 143.84 85 136.57 82.16 133.02 92.71"/><polygon class="cls-7" points="144.41 109.55 152.08 112.39 157.08 96.16 149.82 93.33 144.41 109.55"/></g><rect class="cls-8" x="99.21" y="155.13" width="28.35" height="226.77"/><polygon class="cls-8" points="297.64 155.13 155.43 155.13 155.43 180.49 254.53 180.49 145.01 381.91 294.1 381.91 294.1 356.35 187.76 356.35 297.64 155.13"/><polygon class="cls-8" points="117 82.4 119.24 80.83 118.44 83.44 120.62 85.08 117.89 85.13 117 87.71 116.12 85.13 113.39 85.08 115.57 83.44 114.77 80.83 117 82.4"/><polygon class="cls-8" points="133.02 84.53 136.39 82.16 135.18 86.1 138.48 88.58 134.36 88.65 133.02 92.55 131.68 88.65 127.56 88.58 130.85 86.1 129.64 82.16 133.02 84.53"/><polygon class="cls-8" points="144.41 96.94 149.56 93.33 147.72 99.34 152.74 103.12 146.45 103.22 144.41 109.16 142.37 103.22 136.09 103.12 141.11 99.34 139.27 93.33 144.41 96.94"/><path class="cls-8" d="M127.92,104.18H126v6.32h2a1.64,1.64,0,0,0,1.64-.77,6.29,6.29,0,0,0,.37-2.55q0-.51,0-.87a4.63,4.63,0,0,0-.15-.79,1.9,1.9,0,0,0-.33-.7,1.68,1.68,0,0,0-.61-.46A2.22,2.22,0,0,0,127.92,104.18Z"/><path class="cls-8" d="M135.45,110.59a6.25,6.25,0,0,1-1.1,2.18,4.81,4.81,0,0,1-1.73,1.29,7.82,7.82,0,0,1-2.1.63,16.71,16.71,0,0,1-2.42.15H126v10.61H119.7V99.78H129a8.09,8.09,0,0,1,3.37.65,23.78,23.78,0,0,0-3.14-3.84A21.83,21.83,0,0,0,113.29,90a21.51,21.51,0,0,0-15.83,6.61,24,24,0,0,0-2.66,3.2h2.13l2.38,17,2.18-17h5.68l-4.4,25.67H96L92.4,104.27a22.57,22.57,0,0,0-1.5,8.25,22.11,22.11,0,0,0,6.56,16,21.35,21.35,0,0,0,15.83,6.7,21.66,21.66,0,0,0,15.93-6.7,22,22,0,0,0,6.66-16,24.27,24.27,0,0,0-.19-2.92A8.64,8.64,0,0,1,135.45,110.59ZM116,125.45h-6.27V99.78H116Z"/><rect class="cls-9" width="396.85" height="708.66"/></g></g></svg>